<svg width="207" height="86" viewBox="0 0 207 86" fill="none" xmlns="http://www.w3.org/2000/svg">
<g clip-path="url(#clip0_585_8206)">
<rect x="1" y="1.39" width="205" height="83" fill="#F8F8F8"/>
<rect x="0.5" y="0.889999" width="206" height="84" stroke="#EEEEEE"/>
<path d="M93.7908 55.39V30.89H104.361C107.091 30.89 109.202 31.4383 110.696 32.535C112.212 33.6317 112.971 35.1833 112.971 37.19C112.971 38.52 112.656 39.64 112.026 40.55C111.419 41.46 110.579 42.1483 109.506 42.615C108.456 43.0817 107.301 43.315 106.041 43.315L106.636 42.475C108.199 42.475 109.541 42.72 110.661 43.21C111.804 43.6767 112.691 44.3883 113.321 45.345C113.951 46.2783 114.266 47.445 114.266 48.845C114.266 50.9217 113.496 52.5317 111.956 53.675C110.439 54.8183 108.141 55.39 105.061 55.39H93.7908ZM96.3808 53.255H105.026C107.172 53.255 108.817 52.8933 109.961 52.17C111.104 51.4233 111.676 50.245 111.676 48.635C111.676 47.0483 111.104 45.8933 109.961 45.17C108.817 44.4233 107.172 44.05 105.026 44.05H96.1008V41.915H104.186C106.146 41.915 107.662 41.5417 108.736 40.795C109.832 40.0483 110.381 38.94 110.381 37.47C110.381 35.9767 109.832 34.8683 108.736 34.145C107.662 33.3983 106.146 33.025 104.186 33.025H96.3808V53.255Z" fill="#969696"/>
</g>
<defs>
<clipPath id="clip0_585_8206">
<rect width="207" height="85" fill="white" transform="translate(0 0.389999)"/>
</clipPath>
</defs>
</svg>
