<svg width="173" height="162" viewBox="0 0 173 162" fill="none" xmlns="http://www.w3.org/2000/svg">
<g clip-path="url(#clip0_585_8497)">
<g clip-path="url(#clip1_585_8497)">
<g clip-path="url(#clip2_585_8497)">
<path d="M94.924 128.5L55.4062 128.462V158.954H94.924V128.5Z" fill="#EBEBEB"/>
<path d="M85.0259 158.726C84.95 158.726 84.9121 151.938 84.9121 143.556C84.9121 135.175 84.95 128.386 85.0259 128.386C85.0638 128.386 85.1017 135.175 85.1017 143.556C85.1017 151.938 85.0638 158.726 85.0259 158.726Z" fill="#E0E0E0"/>
<path d="M91.5496 152.014H88.5156V155.427H91.5496V152.014Z" fill="#FAFAFA"/>
<path d="M71.9419 128.576H67.4668V135.061H71.9419V128.576Z" fill="#E0E0E0"/>
<path d="M71.9419 152.355H67.4668V158.84H71.9419V152.355Z" fill="#E0E0E0"/>
<path d="M166.565 120.839H116.77V159.257H166.565V120.839Z" fill="#EBEBEB"/>
<path d="M154.088 158.992C154.05 158.992 154.012 150.421 154.012 139.878C154.012 129.297 154.05 120.726 154.088 120.726C154.163 120.726 154.201 129.297 154.201 139.878C154.201 150.421 154.163 158.992 154.088 158.992Z" fill="#E0E0E0"/>
<path d="M162.356 150.497H158.525V154.82H162.356V150.497Z" fill="#FAFAFA"/>
<path d="M137.627 120.953H131.977V129.145H137.627V120.953Z" fill="#E0E0E0"/>
<path d="M137.627 150.952H131.977V159.144H137.627V150.952Z" fill="#E0E0E0"/>
<path d="M22.9809 121.977C24.9909 120.915 27.3423 120.801 29.5799 121.181C30.7935 121.37 32.045 121.712 32.8793 122.622C33.6757 123.532 33.8274 125.125 32.9172 125.883C32.3484 126.376 31.5519 126.414 30.8314 126.414C29.0868 126.414 27.1527 126.073 25.7494 127.135C24.953 127.742 24.4221 128.728 23.4739 129.031C22.5258 129.335 21.4639 128.766 20.9709 127.931C20.5158 127.059 20.44 126.035 20.7054 125.087C20.8192 124.442 21.0847 123.798 21.4639 123.267C21.8811 122.736 22.3741 122.281 22.9809 121.977Z" fill="#EBEBEB"/>
<path d="M18.3554 113.065C19.569 114.809 21.9582 114.24 23.096 113.179C24.1958 112.079 24.6509 110.524 25.106 109.045C26.0541 105.632 27.0402 102.105 26.3196 98.6154C26.1679 97.5915 25.7128 96.6054 24.9922 95.809C24.6509 95.4298 24.1958 95.1264 23.7028 94.9367C23.2097 94.785 22.6409 94.7471 22.1478 94.8609C20.9343 95.1643 20.1758 96.3779 19.6448 97.4777C18.052 100.815 17.2176 104.456 17.1797 108.135C17.1797 109.841 17.3693 111.624 18.3554 113.065Z" fill="#EBEBEB"/>
<path d="M14.9788 115.568C16.3061 114.013 16.5716 111.662 15.9648 109.69C15.358 107.68 14.0307 106.011 12.4757 104.608C10.6553 103.015 8.53155 101.763 6.21813 100.929C5.30793 100.588 4.35981 100.398 3.41169 100.474C2.91866 100.474 2.46356 100.625 2.04639 100.891C1.62922 101.118 1.28789 101.46 1.06034 101.877C0.377696 103.129 1.02242 104.646 1.70507 105.897C2.91866 108.097 4.28396 110.183 5.80095 112.155C7.05247 113.747 8.4557 115.302 10.314 116.023C12.1723 116.744 14.1444 116.668 15.1305 115.34" fill="#EBEBEB"/>
<path d="M18.2782 139.612C18.3287 139.359 18.3667 139.094 18.3919 138.816C18.4425 138.234 18.5057 137.501 18.5816 136.616C18.708 135.554 18.8723 134.492 19.0746 133.43C19.3527 132.141 19.7446 130.877 20.2503 129.638C20.7054 128.424 21.388 127.249 22.1844 126.225C22.8291 125.39 23.6635 124.67 24.6116 124.177C25.2563 123.873 25.939 123.646 26.6596 123.57C26.9377 123.545 27.2032 123.507 27.456 123.456C27.2032 123.406 26.9377 123.406 26.6596 123.456C25.9011 123.494 25.1805 123.684 24.4978 123.987C23.5118 124.48 22.6395 125.163 21.9569 126.035C21.0846 127.097 20.4399 128.273 19.9469 129.524C19.4412 130.788 19.0619 132.065 18.8091 133.355C18.6068 134.442 18.4551 135.529 18.354 136.616C18.3161 137.526 18.2782 138.285 18.2782 138.816C18.2276 139.069 18.2276 139.334 18.2782 139.612Z" fill="#E0E0E0"/>
<path d="M18.4299 137.944C18.4299 137.817 18.4299 137.691 18.4299 137.564C18.4299 137.286 18.4299 136.932 18.4299 136.502C18.4299 135.554 18.4299 134.227 18.4678 132.596C18.5816 129.297 18.847 125.77 19.378 120.764C19.9089 116.061 20.5916 110.6 21.3501 107.035C21.5018 106.226 21.6535 105.505 21.8052 104.873C21.9569 104.228 22.0706 103.697 22.1844 103.242C22.2982 102.787 22.374 102.484 22.4499 102.218C22.4752 102.092 22.4878 101.965 22.4878 101.839C22.4373 101.94 22.3993 102.054 22.374 102.18C22.2982 102.433 22.1971 102.775 22.0706 103.204C21.9569 103.622 21.8052 104.19 21.6155 104.835C21.4639 105.442 21.2742 106.162 21.1225 106.997C20.2123 111.194 19.5297 115.429 19.0746 119.702C18.5057 124.708 18.2782 129.297 18.2402 132.596C18.2402 134.227 18.2402 135.554 18.3161 136.502C18.3414 136.932 18.354 137.274 18.354 137.526C18.354 137.678 18.3793 137.817 18.4299 137.944Z" fill="#E0E0E0"/>
<path d="M18.4294 129.145C18.4546 128.766 18.4546 128.399 18.4294 128.045C18.3914 127.325 18.2777 126.301 18.088 125.011C17.8352 123.545 17.5065 122.091 17.102 120.65C16.6216 118.88 16.0148 117.148 15.2816 115.454C13.9921 112.382 12.1718 109.538 9.89626 107.111C9.49173 106.681 9.07456 106.289 8.64474 105.935C8.41719 105.783 8.26549 105.594 8.07587 105.48L7.62077 105.139C7.31737 104.911 7.00133 104.709 6.67265 104.532C6.63472 104.608 8.00002 105.404 9.74456 107.262C11.9442 109.727 13.7267 112.534 14.9782 115.606C15.7114 117.274 16.3308 118.981 16.8365 120.726C17.241 122.167 17.5824 123.621 17.8605 125.087C18.088 126.339 18.2397 127.363 18.3156 128.045C18.3156 128.424 18.3535 128.791 18.4294 129.145Z" fill="#E0E0E0"/>
<path d="M9.36719 143.329L10.2395 155.389H25.7507L26.623 143.329H9.36719Z" fill="#EBEBEB"/>
<path d="M28.4807 138.55H7.84961V143.329H28.4807V138.55Z" fill="#EBEBEB"/>
<path d="M7.84961 154.934V156.223H8.83566H28.1394V154.934H7.84961Z" fill="#E0E0E0"/>
<path d="M9.78406 158.423L8.83594 156.11H27.3812L26.2814 158.423H9.78406Z" fill="#E0E0E0"/>
<path d="M26.3178 147.273C26.3178 147.298 26.2925 147.336 26.242 147.387C26.1914 147.463 26.1155 147.564 26.0144 147.69L25.1421 148.828L25.0663 148.866L25.0284 148.828L22.8287 145.756H22.9425L20.7808 148.828L20.7049 148.942L20.6291 148.828L18.0502 145.756H18.164L18.0502 145.946L15.7368 148.828L15.6609 148.942L15.5851 148.828L13.3854 145.756H13.4992L10.8065 148.828L10.7686 148.866L10.7307 148.828L9.89633 147.425C9.7952 147.273 9.71935 147.147 9.66878 147.046C9.6435 146.995 9.63086 146.944 9.63086 146.894C9.65614 146.944 9.68143 146.982 9.70671 147.008L9.93426 147.387L10.8445 148.752H10.7307L13.3854 145.68L13.4613 145.604L13.5371 145.68L15.7368 148.752H15.5851L17.8985 145.832C17.9491 145.781 17.9996 145.731 18.0502 145.68L18.126 145.566L18.2019 145.68L20.7808 148.752H20.6291L22.8287 145.68L22.9046 145.604L22.9425 145.68C23.8527 146.932 24.5733 147.994 25.1421 148.79H25.0663L25.9765 147.652C26.0776 147.526 26.1661 147.425 26.242 147.349C26.2672 147.324 26.2925 147.298 26.3178 147.273Z" fill="#F5F5F5"/>
<path d="M26.8501 143.215C26.8501 143.291 22.9438 143.329 18.1653 143.329C13.3488 143.329 9.48047 143.291 9.48047 143.215C9.48047 143.177 13.3488 143.139 18.1653 143.139C22.9438 143.139 26.8501 143.177 26.8501 143.215Z" fill="#F5F5F5"/>
<path d="M135.58 6.38213H132.395L132.508 22.1968H135.656L135.58 6.38213Z" fill="#E0E0E0"/>
<path d="M113.091 6.42006L104.861 6.45798L104.937 15.1807L113.167 15.1428L113.091 6.42006Z" fill="#EBEBEB"/>
<path d="M121.282 6.38213L113.053 6.42006L113.129 15.1428L121.358 15.1049L121.282 6.38213Z" fill="#F5F5F5"/>
<path d="M104.898 8.88517C110.359 8.93574 115.833 8.91046 121.32 8.80932C121.345 8.80932 121.358 8.79668 121.358 8.7714C121.383 8.7714 121.395 8.75876 121.395 8.73347C121.395 8.70819 121.383 8.68291 121.358 8.65762C121.358 8.63234 121.345 8.6197 121.32 8.6197C115.858 8.6197 110.359 8.6197 104.898 8.73347C104.873 8.73347 104.86 8.74612 104.86 8.7714C104.835 8.7714 104.822 8.78404 104.822 8.80932C104.822 8.83461 104.835 8.84725 104.86 8.84725C104.86 8.87253 104.873 8.88517 104.898 8.88517Z" fill="#E0E0E0"/>
<path d="M114.685 14.9911L99.7422 15.1049L99.7801 22.1968L114.723 22.121L114.685 14.9911Z" fill="#EBEBEB"/>
<path d="M129.589 14.9152L114.646 15.029L114.684 22.121L129.627 22.0451L129.589 14.9152Z" fill="#F5F5F5"/>
<path d="M99.7419 17.0769C109.678 17.1907 119.652 17.0769 129.589 16.9252C129.614 16.9252 129.639 16.9126 129.665 16.8873C129.665 16.8873 129.665 16.8747 129.665 16.8494C129.665 16.8241 129.665 16.7988 129.665 16.7735C129.639 16.7735 129.614 16.7735 129.589 16.7735C119.652 16.6977 109.678 16.6977 99.7419 16.9252C99.7419 16.9252 99.7292 16.9379 99.7039 16.9632C99.6786 16.9632 99.666 16.9758 99.666 17.0011C99.666 17.0264 99.6786 17.039 99.7039 17.039C99.7292 17.0643 99.7419 17.0769 99.7419 17.0769Z" fill="#E0E0E0"/>
<path d="M152.077 22.1968H94.166V24.7757H152.077V22.1968Z" fill="#E0E0E0"/>
<path d="M106 23.4483H103.648V32.1331H106V23.4483Z" fill="#E0E0E0"/>
<path d="M141.117 23.4483H138.766V32.1331H141.117V23.4483Z" fill="#E0E0E0"/>
<path d="M138.69 0.465849L135.504 0.503774L135.618 22.2347H138.803L138.69 0.465849Z" fill="#EBEBEB"/>
<path d="M143.659 4.52381L138.729 4.56174L138.804 22.1968L143.735 22.1589L143.659 4.52381Z" fill="#F5F5F5"/>
<path d="M143.62 7.93705C141.976 8.06347 140.333 8.06347 138.689 7.93705C140.333 7.83592 141.976 7.83592 143.62 7.93705Z" fill="#E0E0E0"/>
<path d="M143.62 7.21648C142.811 7.29233 141.989 7.31761 141.155 7.29233C140.32 7.31761 139.499 7.29233 138.689 7.21648C140.333 7.09006 141.976 7.09006 143.62 7.21648Z" fill="#E0E0E0"/>
<path d="M143.62 19.5041C141.976 19.6306 140.333 19.6306 138.689 19.5041C140.333 19.403 141.976 19.403 143.62 19.5041Z" fill="#E0E0E0"/>
<path d="M143.62 18.7836C141.976 18.8847 140.333 18.8847 138.689 18.7836C140.333 18.6572 141.976 18.6572 143.62 18.7836Z" fill="#E0E0E0"/>
<path d="M141.23 17.1528C141.192 17.1528 141.154 15.3703 141.154 13.1707C141.154 11.009 141.192 9.2265 141.23 9.2265C141.268 9.2265 141.306 11.009 141.306 13.1707C141.306 15.3703 141.268 17.1528 141.23 17.1528Z" fill="#E0E0E0"/>
<path d="M149.043 8.88517H143.695V22.1589H149.043V8.88517Z" fill="#EBEBEB"/>
<path d="M137.059 5.13061C137.552 5.13061 137.969 4.71344 137.969 4.22041C137.969 3.68946 137.552 3.27229 137.059 3.27229C136.528 3.27229 136.148 3.68946 136.148 4.22041C136.148 4.71344 136.528 5.13061 137.059 5.13061Z" fill="#E0E0E0"/>
<path d="M137.325 6.72346H136.756V19.6558H137.325V6.72346Z" fill="#E0E0E0"/>
<path d="M168.31 159.068C168.31 159.106 131.827 159.144 86.8857 159.144C41.9447 159.144 5.46094 159.106 5.46094 159.068C5.46094 158.992 41.9067 158.954 86.8857 158.954C131.865 158.954 168.31 158.992 168.31 159.068Z" fill="#263238"/>
<path d="M48.6568 19.8834C50.4393 22.0451 51.4254 24.8136 51.3874 27.6201C51.3874 29.2129 51.084 30.9954 52.0322 32.2848C52.7148 33.2709 54.0042 33.7639 54.5731 34.8258C55.2937 36.1152 54.6869 37.746 55.1041 39.1492C55.7109 41.1213 58.0243 41.9557 59.4275 43.5106C59.9964 44.1932 60.4135 44.9897 60.6032 45.8619C60.7928 46.7721 60.7928 47.6823 60.5653 48.5546C60.2998 49.3889 59.8447 50.1854 59.2379 50.868C58.5932 51.5127 57.8347 52.0058 57.0003 52.3092C56.0901 52.6505 55.0661 52.6505 54.1939 52.2712C53.2457 51.7782 52.6769 50.8301 52.2218 49.9199C51.2737 48.0995 43.2715 38.2011 42.8164 36.1911" fill="#263238"/>
<path d="M42.8152 17.532C39.5537 17.0011 36.368 19.2007 35.0027 22.1968C33.6374 25.2308 33.5615 28.644 33.4857 31.9814C33.3719 35.3188 33.1444 38.8079 31.4377 41.6523C30.3758 43.4727 28.7071 45.0655 28.4417 47.1514C28.2141 49.0097 29.1622 50.9059 28.8588 52.7643C28.5554 54.395 27.3419 55.7983 27.3798 57.4669C27.4556 59.439 29.4656 60.9181 31.4757 60.994C33.4478 61.0319 35.2682 60.0079 36.8231 58.7564C39.364 56.7464 41.3741 54.2054 42.7394 51.2473" fill="#263238"/>
<path d="M37.4312 25.3446C37.3174 24.5482 37.3933 23.7138 37.6208 22.8795C37.8484 22.083 38.2276 21.3625 38.7206 20.7177C39.2516 20.0351 39.8963 19.5041 40.6548 19.1249C41.3754 18.7077 42.1718 18.4802 43.0061 18.4043C46.3056 18.1009 49.2637 20.566 49.7568 23.8276C50.2119 26.7478 50.5532 29.6301 50.5532 30.692C50.5153 33.8777 48.6569 35.1292 47.8984 35.5084C47.6203 35.6096 47.3422 35.6854 47.0641 35.736L47.7467 39.4147C48.0881 41.804 46.7607 43.9657 44.3335 44.307C41.9442 44.6483 40.0859 42.79 39.7067 40.4008L37.4312 25.3446Z" fill="#FFBE9D"/>
<path d="M49.1112 25.2308C49.0354 25.3066 48.6182 25.0791 48.0873 25.1549C47.5563 25.2687 47.1771 25.5721 47.1391 25.5342C47.0633 25.4583 47.1391 25.3825 47.2908 25.2308C47.5184 25.0032 47.7839 24.8895 48.0493 24.8515C48.3148 24.8136 48.6182 24.8515 48.8837 24.9653C49.0733 25.117 49.1491 25.2308 49.1112 25.2308Z" fill="#263238"/>
<path d="M44.2948 26.4065C44.2569 26.4823 43.8397 26.2548 43.3088 26.3306C42.7399 26.4065 42.3986 26.7478 42.3227 26.6719C42.2469 26.634 42.3227 26.5202 42.4744 26.4065C42.702 26.1789 42.9674 26.0651 43.2329 26.0272C43.5363 25.9514 43.8018 26.0272 44.0673 26.141C44.2569 26.2548 44.3327 26.3685 44.2948 26.4065Z" fill="#263238"/>
<path d="M46.2675 29.2888C46.5456 29.1623 46.8363 29.0739 47.1397 29.0233C47.2535 28.9854 47.4052 28.9474 47.4052 28.8337C47.3799 28.7072 47.3294 28.5808 47.2535 28.4544L46.6846 27.4684C45.8882 26.0272 45.3193 24.8895 45.3573 24.8515C45.4331 24.8136 46.1158 25.9134 46.8743 27.3546C47.0765 27.7086 47.2661 28.0372 47.4431 28.3406C47.5569 28.4923 47.5948 28.682 47.5948 28.8716C47.5695 28.9222 47.5443 28.9727 47.519 29.0233C47.4684 29.0486 47.4305 29.0739 47.4052 29.0991C47.3294 29.1244 47.2409 29.1497 47.1397 29.175C46.8616 29.2508 46.5709 29.2888 46.2675 29.2888Z" fill="#263238"/>
<path d="M47.0251 35.736C47.0251 35.736 44.9772 36.1911 42.1328 35.0154C42.1328 35.0154 43.3464 37.6322 47.2147 36.722L47.0251 35.736Z" fill="#EB996E"/>
<path d="M44.0304 25.0033C43.9925 25.155 43.4616 25.155 42.8168 25.3446C42.21 25.4963 41.717 25.7238 41.6032 25.61C41.5653 25.5721 41.6412 25.4204 41.8308 25.2308C42.0583 25.0412 42.3617 24.8895 42.7031 24.8136C43.0065 24.6999 43.3478 24.6999 43.6512 24.7757C43.9166 24.8136 44.0304 24.9274 44.0304 25.0033Z" fill="#263238"/>
<path d="M48.6563 24.0551C48.5805 24.1689 48.2012 24.0931 47.7461 24.1689C47.291 24.2068 46.9497 24.3585 46.8359 24.2448C46.798 24.2068 46.8359 24.0551 46.9876 23.9414C47.1773 23.7517 47.4048 23.638 47.6703 23.638C47.9358 23.6 48.2012 23.638 48.4288 23.7517C48.6184 23.8655 48.6943 23.9793 48.6563 24.0551Z" fill="#263238"/>
<path d="M43.1191 27.127C43.1444 27.1776 43.1697 27.2282 43.195 27.2787C43.2203 27.3293 43.2582 27.3672 43.3088 27.3925C43.3593 27.4431 43.4099 27.4684 43.4605 27.4684C43.5363 27.4937 43.5995 27.5063 43.6501 27.5063C43.7007 27.481 43.7512 27.4557 43.8018 27.4304C43.8524 27.4052 43.9029 27.3672 43.9535 27.3167C43.9788 27.2661 44.0041 27.2155 44.0293 27.165C44.0293 27.1144 44.0293 27.0638 44.0293 27.0133C43.9914 26.8995 43.9535 26.7857 43.8397 26.7099C43.7639 26.634 43.6501 26.5961 43.4984 26.634C43.4478 26.634 43.3973 26.6467 43.3467 26.6719C43.2961 26.6972 43.2582 26.7352 43.2329 26.7857C43.1823 26.8363 43.1571 26.8869 43.1571 26.9374C43.1318 26.988 43.1191 27.0512 43.1191 27.127Z" fill="#263238"/>
<path d="M47.935 26.0651C47.935 26.1789 48.0108 26.2927 48.0867 26.3685C48.2004 26.4444 48.3142 26.4823 48.428 26.4444C48.4786 26.4444 48.5291 26.4318 48.5797 26.4065C48.6303 26.3812 48.6808 26.3433 48.7314 26.2927C48.7567 26.2421 48.782 26.1916 48.8072 26.141C48.8072 26.0904 48.8072 26.0272 48.8072 25.9514C48.8072 25.8376 48.7314 25.7238 48.6176 25.6859C48.5418 25.61 48.428 25.5721 48.3142 25.5721C48.2384 25.5974 48.1752 25.6227 48.1246 25.648C48.074 25.6733 48.0361 25.7112 48.0108 25.7617C47.9603 25.787 47.935 25.8376 47.935 25.9134C47.9097 25.964 47.9097 26.0146 47.935 26.0651Z" fill="#263238"/>
<path d="M47.1396 30.3507C46.9879 30.3127 46.7982 30.3127 46.6845 30.3886C46.5328 30.4265 46.419 30.5403 46.3431 30.692C46.2673 30.8184 46.242 30.9575 46.2673 31.1092C46.2673 31.2356 46.3179 31.362 46.419 31.4884C46.5328 31.5643 46.6845 31.6401 46.7982 31.6401C46.9499 31.678 47.1016 31.6022 47.2154 31.5263C47.3671 31.4126 47.443 31.2229 47.4809 31.0333C47.4809 30.8437 47.443 30.6541 47.3292 30.5024C47.2786 30.4265 47.2154 30.3759 47.1396 30.3507C47.0384 30.3254 46.9499 30.3254 46.8741 30.3507H47.1396Z" fill="#EB996E"/>
<path d="M49.3399 21.2487C49.0365 20.0351 48.3159 19.0111 47.254 18.3285C46.4197 17.7217 45.3957 17.3424 44.3717 17.3045C43.3098 17.2666 42.2858 17.6458 41.4894 18.3664C40.9585 18.8973 40.6172 19.6179 40.6172 20.4143L40.693 19.8834C40.5034 20.3006 40.5034 20.7936 40.693 21.2108C40.7688 21.4383 40.8826 21.7038 40.9585 21.9313C41.2239 22.5761 41.7549 23.1449 42.3996 23.4483C42.6651 23.638 43.0064 23.7138 43.3477 23.7138C43.4994 23.6885 43.6511 23.638 43.8028 23.5621C43.9545 23.5115 44.081 23.4104 44.1821 23.2587C44.4096 22.8795 44.4855 22.3864 44.4096 21.9313C44.6372 22.3864 45.0164 22.7657 45.4336 23.0691C45.6612 23.1829 45.9266 23.2587 46.1542 23.2208C46.4197 23.1829 46.6851 23.0691 46.8368 22.8795C47.1782 22.5002 47.0265 21.9313 46.8368 21.4383C47.1402 21.8934 47.5574 22.2347 48.0504 22.4623C48.1768 22.5381 48.3159 22.5887 48.4676 22.614C48.6193 22.614 48.7584 22.5887 48.8848 22.5381C49.0112 22.4876 49.1123 22.4117 49.1882 22.3106C49.264 22.2094 49.3146 22.0957 49.3399 21.9693C49.3904 21.7417 49.3904 21.5015 49.3399 21.2487Z" fill="#263238"/>
<path d="M46.6093 22.2727C46.5714 22.2727 46.5714 21.8176 46.4197 21.1349C46.268 20.2247 45.8129 19.3904 45.1302 18.7456C44.751 18.4043 44.2959 18.1768 43.8028 18.0251C43.3857 17.9492 42.9685 17.9113 42.5892 17.9871C42.21 18.0883 41.856 18.24 41.5273 18.4422C41.5273 18.4422 41.6032 18.3285 41.7549 18.2147C42.0077 18.063 42.2732 17.9492 42.5513 17.8734C42.9685 17.7596 43.4236 17.7596 43.8408 17.8734C44.3717 17.9871 44.8647 18.2526 45.244 18.6319C45.9646 19.2766 46.4197 20.1489 46.5714 21.1349C46.6219 21.413 46.6472 21.6911 46.6472 21.9693C46.6472 22.0704 46.6346 22.1715 46.6093 22.2727Z" fill="#455A64"/>
<path d="M81.537 66.4931L66.9359 60.6906C66.9359 60.6906 59.4647 50.9059 59.6164 50.7163L54.3828 56.443L62.0057 66.7585L79.6787 70.8924L82.7127 70.058C82.0301 66.8344 81.537 66.4551 81.537 66.4551V66.4931Z" fill="#FFBE9D"/>
<path d="M49.7564 38.5424L47.7463 37.7839L39.1753 38.8458V40.3628L38.9478 40.4007C37.0894 40.78 35.307 41.5006 33.6762 42.4487C32.1592 43.3589 30.9456 44.7621 30.1871 46.355C29.4665 47.9857 29.2011 49.8061 29.5045 51.5886C29.8458 53.7503 30.5284 56.3671 31.8558 57.922C34.3209 60.8043 36.5964 57.2015 36.5964 57.2015C36.5964 57.2015 38.1513 60.7664 38.0755 62.473C37.9996 63.8763 37.3928 66.8344 37.1653 67.7446C37.1653 67.7699 37.1653 67.8078 37.1653 67.8584C37.1906 67.8836 37.2032 67.9216 37.2032 67.9721C37.2285 67.9974 37.2538 68.0227 37.2791 68.048C37.3296 68.0733 37.3676 68.0859 37.3928 68.0859L55.483 71.4233L55.5968 66.9861L54.99 48.7821L54.1936 41.7281C54.1936 41.7281 54.2315 38.3528 49.7564 38.5424Z" fill="#EC8951"/>
<path d="M53.9277 40.5525L60.8301 50.5267L55.2551 57.2773L53.9277 40.5525Z" fill="#EC8951"/>
<path d="M55.4073 61.5249C55.382 61.3226 55.3694 61.1077 55.3694 60.8802C55.3694 60.4251 55.3694 59.8562 55.3694 59.1356C55.3188 57.2141 55.1798 55.2926 54.9522 53.3711C54.6488 51.1335 54.2316 49.1614 53.8903 47.6823L53.4731 45.9757C53.4226 45.7734 53.3847 45.5712 53.3594 45.3689C53.4605 45.5712 53.5364 45.7734 53.5869 45.9757C53.7007 46.355 53.8524 46.9618 54.042 47.6823C54.5224 49.5533 54.889 51.4495 55.1418 53.3711C55.3947 55.2673 55.5084 57.1888 55.4832 59.1356C55.4832 59.8941 55.4705 60.4757 55.4452 60.8802C55.4452 61.1077 55.4326 61.3226 55.4073 61.5249Z" fill="#263238"/>
<path d="M38.4176 46.3929C38.4176 46.3929 37.8866 46.3929 37.0523 46.4308C35.9651 46.5067 34.8779 46.6457 33.7907 46.848C32.7288 47.0755 31.6796 47.3789 30.643 47.7582C29.8465 48.0616 29.3914 48.2891 29.3535 48.2512C29.4546 48.1754 29.5684 48.1121 29.6948 48.0616C29.8845 47.9478 30.1879 47.7961 30.605 47.6444C32.653 46.8101 34.8147 46.355 37.0523 46.317C37.4821 46.317 37.8108 46.317 38.0383 46.317C38.1647 46.317 38.2911 46.3423 38.4176 46.3929Z" fill="#FAFAFA"/>
<path d="M54.3839 50.9439C54.1058 51.045 53.8277 51.1082 53.5495 51.1335C52.1463 51.3231 50.7052 51.361 49.302 51.2852C48.9986 51.2599 48.7078 51.2093 48.4297 51.1335C48.7331 51.1082 49.0238 51.1082 49.302 51.1335C49.8329 51.1335 50.5914 51.1335 51.4258 51.1335C52.2601 51.1335 52.9807 51.0576 53.5116 51.0197C53.815 50.9692 54.1058 50.9439 54.3839 50.9439Z" fill="#FAFAFA"/>
<path d="M57.5693 46.4308C57.1521 46.9238 56.6591 47.3031 56.0903 47.6065C55.5593 47.9857 54.9904 48.2512 54.3457 48.365C54.3457 48.327 55.1042 47.9857 55.9765 47.4548C56.8867 46.8859 57.5314 46.3929 57.5693 46.4308Z" fill="#FAFAFA"/>
<path d="M54.7629 41.804C53.5872 42.8659 52.0702 43.5106 50.4395 43.6244C50.4395 43.5485 51.5014 43.3968 52.677 42.9038C53.8906 42.3728 54.725 41.766 54.7629 41.804Z" fill="#FAFAFA"/>
<path d="M55.1411 58.6426C55.0399 58.7185 54.9262 58.7817 54.7997 58.8322C54.5469 58.9587 54.2056 59.0977 53.7758 59.2494C52.638 59.6792 51.4624 59.9826 50.2488 60.1596C49.0604 60.3366 47.8469 60.3998 46.608 60.3492C46.1529 60.3492 45.7736 60.3113 45.5082 60.2734C45.3817 60.2734 45.2553 60.2481 45.1289 60.1975C45.1289 60.1596 45.6978 60.1975 46.6459 60.2355C49.0352 60.2355 51.4624 59.8562 53.7379 59.1356C54.6101 58.8322 55.1411 58.6426 55.1411 58.6426Z" fill="#FAFAFA"/>
<path d="M55.2926 63.8004C55.2926 63.8004 55.2421 63.8257 55.1409 63.8762L54.6479 64.1038C54.2307 64.2934 53.6239 64.5589 52.8275 64.8623C52.069 65.1657 51.1209 65.4691 50.059 65.7346C47.7835 66.3793 45.4322 66.7206 43.0429 66.8344C41.981 66.8723 40.9949 66.8723 40.1606 66.8344C39.3263 66.7965 38.6815 66.7206 38.2264 66.6827L37.6955 66.6068C37.6196 66.6068 37.5564 66.5942 37.5059 66.5689C37.5564 66.5436 37.6196 66.5436 37.6955 66.5689L38.2264 66.6068C38.6815 66.6448 39.3642 66.6827 40.1606 66.6827C40.957 66.7206 41.981 66.6827 43.0429 66.6448C44.1427 66.6068 45.3184 66.4931 46.5699 66.2655C47.8214 66.0759 48.9592 65.8104 50.0211 65.5449C51.083 65.2795 52.0311 65.014 52.7896 64.7106C53.5481 64.4451 54.1928 64.2176 54.61 64.028L55.103 63.8383C55.1789 63.813 55.2421 63.8004 55.2926 63.8004Z" fill="#FAFAFA"/>
<path d="M22.0335 144.429L19.9855 153.682L16.231 160.547C16.1804 160.673 16.1425 160.8 16.1172 160.926C16.1172 161.052 16.1298 161.179 16.1551 161.305C16.2057 161.432 16.2815 161.545 16.3827 161.647C16.4585 161.748 16.5596 161.836 16.6861 161.912C16.8378 161.963 16.9895 161.988 17.1412 161.988C17.2929 161.988 17.4319 161.937 17.5583 161.836C19.3029 160.85 25.6743 157.134 25.788 156.451C25.9397 155.654 28.5945 146.818 28.5945 146.818L22.0335 144.429Z" fill="#EC8951"/>
<g opacity="0.6">
<path d="M16.6855 161.912L25.9392 155.844L25.8634 156.223C25.7875 156.565 25.56 156.83 25.2945 157.058C24.536 157.589 22.4122 159.068 17.5957 161.874C17.4693 161.95 17.3176 161.988 17.1406 161.988C16.9889 161.988 16.8372 161.963 16.6855 161.912Z" fill="white"/>
</g>
<g opacity="0.6">
<path d="M24.8018 152.393C24.6501 152.431 24.5363 152.545 24.4984 152.658C24.4225 152.81 24.4225 152.962 24.4605 153.076C24.4984 153.227 24.6122 153.341 24.7259 153.417C24.8776 153.455 24.9914 153.493 25.1431 153.417C25.2948 153.379 25.4086 153.265 25.4844 153.114C25.5224 153 25.5603 152.81 25.5224 152.658C25.4465 152.545 25.3327 152.431 25.181 152.393C25.0293 152.317 24.8776 152.355 24.7639 152.393" fill="white"/>
</g>
<path d="M19.7956 158.385C19.6187 158.031 19.4038 157.728 19.1509 157.475C18.8475 157.247 18.5062 157.096 18.127 157.02C18.127 156.982 18.2787 156.944 18.5062 156.982C18.7717 157.02 19.0751 157.134 19.2647 157.323C19.4922 157.513 19.6819 157.74 19.7577 158.044C19.8336 158.233 19.7956 158.385 19.7956 158.385Z" fill="#263238"/>
<path d="M18.8096 159.447C18.7717 159.485 18.5442 159.106 18.0891 158.878C17.811 158.726 17.5202 158.613 17.2168 158.537C17.3938 158.486 17.5708 158.474 17.7477 158.499C17.9247 158.524 18.0764 158.587 18.2028 158.688C18.6959 158.992 18.8855 159.447 18.8096 159.447Z" fill="#263238"/>
<path d="M21.3885 157.096C21.0598 156.742 20.7058 156.413 20.3266 156.11C19.922 155.857 19.4922 155.642 19.0371 155.465C19.5681 155.427 20.0611 155.617 20.4783 155.92C20.8954 156.185 21.2368 156.603 21.3885 157.096Z" fill="#263238"/>
<path d="M22.2604 154.327C22.2224 154.403 21.7673 154.062 21.1226 153.872C20.4779 153.682 19.8711 153.72 19.8711 153.644C20.3262 153.531 20.7434 153.531 21.1605 153.682C21.5777 153.796 21.957 154.024 22.2604 154.327Z" fill="#263238"/>
<path d="M22.9046 151.634C22.5506 151.407 22.1587 151.23 21.7289 151.103C21.2991 151.053 20.8693 151.053 20.4395 151.103C20.4395 151.103 20.5532 150.99 20.7808 150.914C21.1221 150.838 21.4634 150.838 21.7668 150.876C22.1081 150.952 22.4115 151.103 22.677 151.293C22.8666 151.483 22.9425 151.634 22.9046 151.634Z" fill="#263238"/>
<path d="M21.8816 150.61C21.8816 150.484 21.9068 150.358 21.9574 150.231C22.0585 149.928 22.2229 149.65 22.4504 149.397C22.6021 149.207 22.7918 149.056 23.0193 149.018C23.1204 148.992 23.2089 148.992 23.2848 149.018C23.3606 149.068 23.4112 149.131 23.4365 149.207C23.5123 149.321 23.5123 149.473 23.4744 149.624C23.3986 149.966 23.171 150.193 22.9055 150.383C22.6401 150.573 22.3367 150.61 22.0333 150.573C21.6919 150.535 21.4265 150.421 21.161 150.193C20.9334 150.004 20.7817 149.7 20.7059 149.397C20.6806 149.321 20.668 149.245 20.668 149.169C20.6933 149.093 20.7312 149.018 20.7817 148.942C20.8323 148.891 20.8955 148.853 20.9714 148.828C21.0472 148.803 21.1231 148.815 21.1989 148.866C21.4265 148.967 21.6034 149.119 21.7299 149.321C21.9321 149.574 22.0838 149.865 22.185 150.193C22.2355 150.32 22.2608 150.433 22.2608 150.535C22.1091 150.13 21.8942 149.751 21.6161 149.397C21.4897 149.245 21.338 149.119 21.161 149.018C21.1104 149.018 21.0725 149.018 21.0472 149.018C20.9967 149.043 20.9587 149.068 20.9334 149.093C20.9082 149.144 20.8829 149.195 20.8576 149.245C20.8576 149.296 20.8702 149.346 20.8955 149.397C20.9714 149.662 21.1231 149.89 21.3127 150.042C21.5023 150.231 21.7678 150.345 22.0333 150.383C22.2987 150.421 22.5642 150.345 22.7918 150.193C23.0193 150.08 23.2089 149.852 23.2848 149.586C23.3354 149.485 23.3354 149.384 23.2848 149.283C23.2595 149.233 23.2342 149.207 23.2089 149.207C23.1584 149.182 23.1078 149.169 23.0572 149.169C22.8676 149.245 22.7159 149.359 22.5642 149.511C22.2861 149.839 22.0585 150.206 21.8816 150.61Z" fill="#263238"/>
<g opacity="0.3">
<path d="M21.7668 145.415L21.3496 147.539L28.0623 148.676L28.5933 146.818L22.0323 144.429L21.7668 145.415Z" fill="black"/>
</g>
<path d="M51.9932 147.842L51.4243 155.237C51.4243 155.237 58.7817 158.271 58.8197 159.675L44.4082 159.144L44.7875 147.539L51.9932 147.842Z" fill="#EC8951"/>
<g opacity="0.6">
<path d="M47.0254 154.441C46.8737 154.479 46.7599 154.593 46.6841 154.706C46.6082 154.82 46.5703 154.972 46.5703 155.124C46.6082 155.237 46.722 155.389 46.8358 155.465C46.9496 155.541 47.1013 155.579 47.215 155.541C47.3667 155.503 47.5184 155.427 47.5943 155.275C47.6701 155.161 47.7081 155.01 47.7081 154.858C47.6322 154.706 47.5564 154.593 47.4047 154.517C47.253 154.441 47.1013 154.441 46.9496 154.479" fill="white"/>
</g>
<g opacity="0.6">
<path d="M44.4082 159.144L44.4841 157.968L58.2887 158.916C58.2887 158.916 58.8955 159.219 58.8197 159.674L44.4082 159.144Z" fill="white"/>
</g>
<path d="M51.6908 155.199C51.6908 155.275 51.3116 155.275 50.9703 155.503C50.6289 155.692 50.4393 155.996 50.3635 155.958C50.2876 155.92 50.4014 155.541 50.8565 155.275C51.2737 155.048 51.6908 155.124 51.6908 155.199Z" fill="#263238"/>
<path d="M53.1694 155.882C53.1694 155.958 52.866 156.072 52.6384 156.337C52.373 156.641 52.2971 156.944 52.2213 156.944C52.1454 156.944 52.1075 156.527 52.4488 156.185C52.7522 155.844 53.1694 155.806 53.1694 155.882Z" fill="#263238"/>
<path d="M53.9659 157.702C53.89 157.702 53.8142 157.361 54.0038 156.982C54.1934 156.603 54.5347 156.489 54.5727 156.527C54.5727 156.603 54.383 156.792 54.2313 157.096C54.0796 157.399 54.0417 157.702 53.9659 157.702Z" fill="#263238"/>
<path d="M51.6139 153.493C51.576 153.569 51.2726 153.455 50.8554 153.455C50.4383 153.455 50.1349 153.569 50.0969 153.531C50.059 153.455 50.3624 153.227 50.8554 153.227C51.3485 153.189 51.6519 153.455 51.6139 153.493Z" fill="#263238"/>
<g opacity="0.3">
<path d="M51.8807 149.321L51.8048 150.648L44.7129 150.307L44.7508 148.79L51.8807 149.321Z" fill="black"/>
</g>
<path d="M51.7289 151.976C51.4635 152.052 51.2359 152.052 50.9704 151.976C50.7176 151.9 50.4648 151.811 50.2119 151.71C50.0855 151.634 49.9591 151.559 49.8327 151.483C49.7568 151.432 49.681 151.369 49.6051 151.293C49.5799 151.243 49.5546 151.179 49.5293 151.103C49.5546 151.028 49.5799 150.964 49.6051 150.914C49.6557 150.863 49.7063 150.825 49.7568 150.8C49.8074 150.775 49.858 150.762 49.9085 150.762C50.0097 150.762 50.1108 150.775 50.2119 150.8C50.3636 150.851 50.5027 150.914 50.6291 150.99C50.8819 151.091 51.0969 151.243 51.2738 151.445C51.6152 151.748 51.691 152.014 51.691 152.052C51.6531 152.052 51.5014 151.824 51.1601 151.559C50.9831 151.407 50.7808 151.28 50.5533 151.179C50.4016 151.129 50.2625 151.078 50.1361 151.028C49.9844 150.99 49.8327 150.99 49.7948 151.028C49.7568 151.103 49.7948 151.066 49.7948 151.141C49.8453 151.192 49.8959 151.23 49.9465 151.255C50.0729 151.331 50.1993 151.407 50.3257 151.483C50.5533 151.609 50.7935 151.71 51.0463 151.786C51.2738 151.837 51.4887 151.9 51.691 151.976H51.7289Z" fill="#263238"/>
<path d="M51.6147 152.09C51.5009 151.862 51.4251 151.634 51.463 151.369C51.463 151.116 51.5009 150.863 51.5768 150.61C51.6273 150.459 51.6905 150.307 51.7664 150.155C51.817 150.08 51.8802 150.004 51.956 149.928C52.0571 149.877 52.1583 149.839 52.2594 149.814C52.3353 149.814 52.3985 149.839 52.449 149.89C52.4996 149.915 52.5375 149.966 52.5628 150.042C52.5881 150.117 52.6007 150.206 52.6007 150.307C52.626 150.459 52.626 150.623 52.6007 150.8C52.5628 151.066 52.449 151.293 52.2594 151.521C51.9939 151.9 51.6905 151.938 51.6905 151.938C51.6526 151.9 51.9181 151.786 52.1456 151.407C52.2721 151.205 52.3479 150.99 52.3732 150.762C52.3985 150.61 52.3985 150.471 52.3732 150.345C52.3732 150.193 52.2973 150.042 52.2594 150.08C52.2215 150.08 52.0698 150.155 51.9939 150.307C51.9181 150.433 51.8549 150.56 51.8043 150.686C51.7285 150.914 51.6779 151.141 51.6526 151.369C51.5768 151.824 51.6526 152.09 51.6147 152.09Z" fill="#263238"/>
<path d="M37.0895 68.0101C37.0895 68.0101 34.814 68.1238 33.297 75.8984C31.78 83.673 20.2129 146.742 20.2129 146.742L28.5943 146.818L44.409 86.8587L43.3471 148.676L51.8802 149.321C51.8802 149.321 58.2515 80.9425 58.3274 76.9603C58.4032 72.0301 55.5589 66.9861 55.5589 66.9861L37.0895 68.0101Z" fill="#263238"/>
<path d="M48.6186 67.3653C48.6944 67.3653 47.7842 71.8026 46.6844 77.2637C45.5466 82.7628 44.5985 87.1621 44.5227 87.1621C44.4848 87.1621 45.357 82.7249 46.4948 77.2258C47.5946 71.7646 48.5806 67.3274 48.6186 67.3653Z" fill="#455A64"/>
<path d="M49.9463 68.4652C49.9463 68.4272 50.1739 68.3514 50.4014 68.5789C50.4773 68.6548 50.5405 68.7433 50.591 68.8444C50.6416 68.9455 50.6542 69.0467 50.629 69.1478C50.629 69.2742 50.591 69.388 50.5152 69.4891C50.4393 69.5903 50.3382 69.6661 50.2118 69.7167C50.0854 69.7673 49.959 69.7799 49.8325 69.7546C49.7061 69.7546 49.5924 69.704 49.4912 69.6029C49.4154 69.5523 49.3648 69.4765 49.3395 69.3754C49.289 69.2742 49.2637 69.1731 49.2637 69.072C49.2637 68.7306 49.5291 68.6169 49.5291 68.6169C49.4533 68.7686 49.4154 68.9203 49.4154 69.072C49.4154 69.1478 49.4407 69.2237 49.4912 69.2995C49.5165 69.3754 49.5544 69.4386 49.605 69.4891C49.6808 69.5397 49.7693 69.565 49.8705 69.565C49.9716 69.565 50.0601 69.5523 50.1359 69.5271C50.2118 69.5018 50.2876 69.4512 50.3635 69.3754C50.4141 69.2995 50.452 69.211 50.4773 69.1099C50.4773 69.034 50.4646 68.9582 50.4393 68.8823C50.4141 68.8065 50.3761 68.7433 50.3256 68.6927C50.1359 68.4652 49.9084 68.5031 49.9463 68.4652Z" fill="#455A64"/>
<path d="M49.5662 71.5371C49.5662 71.4992 49.7938 71.5371 49.9455 71.8405C49.9707 71.9416 49.9834 72.0427 49.9834 72.1439C49.9834 72.245 49.9581 72.3335 49.9075 72.4093C49.857 72.5105 49.7685 72.5863 49.6421 72.6369C49.5409 72.7127 49.4271 72.738 49.3007 72.7127C49.1743 72.7127 49.0605 72.6748 48.9594 72.599C48.8583 72.5231 48.7824 72.4346 48.7319 72.3335C48.7066 72.2324 48.7066 72.1312 48.7319 72.0301C48.7319 71.929 48.7571 71.8405 48.8077 71.7646C48.9973 71.4612 49.2249 71.4992 49.2249 71.4992C49.2249 71.5371 49.0353 71.575 48.9215 71.8405C48.8836 71.9542 48.8836 72.106 48.9215 72.2576C48.972 72.3335 49.0352 72.3967 49.1111 72.4473C49.1869 72.4978 49.2628 72.5231 49.3387 72.5231C49.4145 72.5231 49.4904 72.5105 49.5662 72.4852C49.6673 72.4346 49.7432 72.3841 49.7937 72.3335C49.8317 72.1818 49.8696 72.0301 49.8317 71.9163C49.7179 71.6509 49.5662 71.575 49.5662 71.5371Z" fill="#455A64"/>
<path d="M41.5262 68.541C41.501 68.6674 41.463 68.7938 41.4125 68.9203C41.3113 69.2742 41.1723 69.6029 40.9953 69.9063C40.4264 71.0061 39.5921 71.9163 38.5681 72.5611C37.5441 73.2437 36.3684 73.6609 35.1549 73.7747C34.8009 73.7999 34.4343 73.7999 34.055 73.7747C33.9286 73.7494 33.8022 73.7241 33.6758 73.6988C33.6758 73.6609 34.2447 73.7367 35.1549 73.623C36.3305 73.4713 37.4683 73.0541 38.4543 72.4094C39.4404 71.7267 40.2747 70.8544 40.8815 69.8305C41.3366 69.072 41.4883 68.541 41.5262 68.541Z" fill="#455A64"/>
<path d="M57.8344 74.0781C57.8344 74.0781 57.7586 74.0022 57.6069 73.9263C57.3793 73.7746 57.177 73.5977 57.0001 73.3954C56.3553 72.7507 55.8623 71.9922 55.5589 71.1958C55.2176 70.3614 55.1038 69.4512 55.1417 68.5789C55.1417 68.3008 55.167 68.0353 55.2176 67.7825C55.2682 67.6055 55.3061 67.517 55.3314 67.517C55.3314 67.517 55.2555 67.9342 55.2555 68.5789C55.2555 70.3235 55.9002 71.9922 57.0759 73.2816C57.531 73.7746 57.8723 74.0401 57.8344 74.0781Z" fill="#455A64"/>
<path d="M87.2645 74.2677C87.3783 73.9643 87.3404 74.116 85.3303 72.7507C85.3303 72.7507 88.2126 74.6469 87.9092 73.7746C87.6564 73.4207 87.353 73.1299 86.999 72.9024C87.7575 73.3575 88.1747 73.3954 88.3264 73.2058C88.554 72.9024 86.8853 71.6888 86.1268 71.1578C86.8347 71.6635 87.5806 72.1186 88.3643 72.5231C88.8194 72.6748 88.6298 72.1439 88.2885 71.7267C87.9851 71.3475 85.52 68.9961 84.8752 68.2755C84.8247 68.225 84.7741 68.1618 84.7235 68.0859C84.6983 68.0101 84.6856 67.9342 84.6856 67.8584C84.6856 67.7825 84.6983 67.7067 84.7235 67.6308C84.7741 67.555 84.8247 67.4791 84.8752 67.4033C86.0509 66.6448 86.5819 65.4312 86.5439 65.0519C86.5439 64.9508 86.506 64.8749 86.4302 64.8244C86.3796 64.7485 86.3037 64.698 86.2026 64.6727C86.1015 64.6727 86.013 64.698 85.9371 64.7485C85.8613 64.7738 85.7981 64.8244 85.7475 64.9002C85.4441 65.2795 85.1028 65.6082 84.7235 65.8863C84.4201 66.1138 84.0915 66.2908 83.7375 66.4172C83.3203 66.5689 81.2724 66.4551 80.8173 66.2276L79.4141 70.9682C79.4141 70.9682 84.496 73.3196 85.482 73.8126C86.6577 74.3435 87.1887 74.5331 87.2645 74.2677Z" fill="#FFBE9D"/>
<path d="M84.4195 72.068C84.3816 72.1439 85.0642 72.599 85.8985 73.1299C86.7708 73.6988 87.4914 74.078 87.4914 74.0401C87.5293 73.9643 86.8846 73.4712 86.0123 72.9403C85.178 72.4093 84.4574 71.9922 84.4195 72.068Z" fill="#EB996E"/>
<path d="M84.9136 71.1578C84.8757 71.1958 85.5583 71.7646 86.4306 72.3714C87.3029 73.0161 88.0235 73.4712 88.0614 73.4333C88.0993 73.3575 87.4546 72.8265 86.5444 72.1818C85.6721 71.5371 84.9515 71.082 84.9136 71.1578Z" fill="#EB996E"/>
<path d="M85.4059 70.2097C85.368 70.2476 86.0127 70.7786 86.8091 71.3854C87.6435 71.9922 88.3261 72.4473 88.364 72.4093C88.4019 72.3335 87.7952 71.8026 86.9608 71.1958C86.1644 70.589 85.4438 70.1339 85.4059 70.2097Z" fill="#EB996E"/>
<path d="M33.7512 53.0297L37.4678 53.2194C37.7459 54.256 38.0999 55.2673 38.5297 56.2534C41.5258 51.0576 43.8392 44.0795 44.446 41.273C44.3701 40.9949 44.269 40.6789 44.1426 40.3249C44.0288 39.8319 44.0667 39.263 44.1805 38.77C44.2943 38.1253 44.446 37.2909 44.5218 36.9117C44.6735 35.736 44.8631 35.5464 45.2803 35.6601C45.8113 35.8498 45.0148 38.9975 45.5079 39.0734C45.7354 39.1113 46.0388 38.0115 46.1526 37.1392C46.2284 36.2669 46.6077 33.5363 46.9111 33.3467C47.3283 33.0812 47.7075 33.4984 47.5937 34.3707C47.48 35.2809 47.3662 37.9356 47.8213 37.9736C48.2764 38.0115 48.6556 33.4984 48.6556 33.4984C48.6556 33.4984 48.6177 32.5124 49.1487 32.5503C50.0968 32.5882 49.3383 37.3288 49.2624 37.7839C49.2245 38.0873 49.7175 38.1632 49.7555 37.8219C49.7934 37.4805 50.0589 33.3088 51.0449 33.3467C51.8034 33.3467 50.4381 37.253 50.8932 38.1632C51.3104 39.0734 51.6138 35.0913 52.3343 35.1292C52.5998 35.1671 52.7894 35.205 52.2964 37.4805C51.816 39.2504 51.2345 40.9949 50.5519 42.7142C49.4141 48.9338 44.3322 68.8444 36.4059 65.2036C31.9687 63.1557 29.8828 53.0677 29.8828 53.0677L33.7512 53.0297Z" fill="#FFBE9D"/>
<path d="M50.5532 42.7521C50.5785 42.7015 50.5911 42.651 50.5911 42.6004C50.6417 42.5245 50.6922 42.3981 50.7428 42.2211C50.8692 41.8672 51.0462 41.3615 51.2738 40.7042C51.5013 40.0594 51.7668 39.263 52.0323 38.3149C52.1587 37.8598 52.2725 37.3541 52.3736 36.7979C52.4242 36.5451 52.4747 36.2669 52.5253 35.9635C52.5253 35.8371 52.5253 35.6981 52.5253 35.5464C52.5253 35.3947 52.4874 35.2809 52.3736 35.2809C52.2219 35.2809 52.146 35.3567 52.0702 35.4705C51.9943 35.5969 51.9311 35.736 51.8806 35.8877C51.7668 36.1911 51.6909 36.4945 51.6151 36.8358C51.5392 37.1392 51.4634 37.4805 51.3496 37.8219C51.299 38.0241 51.2232 38.2011 51.1221 38.3528C51.0968 38.3781 51.0589 38.4034 51.0083 38.4287C50.983 38.4287 50.9577 38.4287 50.9324 38.4287C50.9072 38.4034 50.8945 38.3907 50.8945 38.3907C50.844 38.3402 50.806 38.2896 50.7807 38.239C50.7302 38.1379 50.7049 38.0368 50.7049 37.9356C50.6796 37.1771 50.7555 36.4186 50.9324 35.6601C50.983 35.2809 51.0462 34.9016 51.1221 34.5224C51.1221 34.3328 51.16 34.1431 51.16 33.9535C51.16 33.726 51.1221 33.5363 51.0462 33.4984C50.9704 33.4605 50.7807 33.5743 50.667 33.726C50.5658 33.903 50.49 34.0799 50.4394 34.2569C50.2877 34.6615 50.1866 35.066 50.136 35.4705C50.0602 35.9003 49.997 36.3301 49.9464 36.76C49.9211 36.9622 49.9085 37.1771 49.9085 37.4047L49.8705 37.746C49.8705 37.8219 49.8579 37.8851 49.8326 37.9356C49.8073 38.0115 49.7694 38.0747 49.7188 38.1253C49.643 38.1758 49.5671 38.2011 49.4913 38.2011C49.4154 38.2011 49.3396 38.1758 49.2637 38.1253C49.2132 38.1 49.1753 38.062 49.15 38.0115C49.15 37.9862 49.1373 37.9483 49.112 37.8977C49.112 37.8471 49.112 37.8092 49.112 37.7839V37.7081L49.2258 37.0254C49.3017 36.5956 49.3522 36.1532 49.3775 35.6981C49.4281 35.243 49.4534 34.7752 49.4534 34.2948C49.4787 33.8397 49.4407 33.3973 49.3396 32.9675C49.3143 32.8411 49.2511 32.7526 49.15 32.702C49.0994 32.6767 49.0488 32.6767 48.9983 32.702C48.9477 32.702 48.9098 32.7273 48.8845 32.7779C48.7707 33.0054 48.7328 33.2709 48.7328 33.4984C48.6569 34.3833 48.5558 35.2556 48.4294 36.1152C48.3915 36.5703 48.3156 36.9875 48.2018 37.4047C48.1766 37.5058 48.1386 37.607 48.0881 37.7081C48.0628 37.8598 47.9996 37.9736 47.8984 38.0494C47.8479 38.0747 47.7973 38.0873 47.7468 38.0873C47.6962 38.0621 47.6456 38.0368 47.5951 38.0115C47.5445 37.9609 47.5192 37.8977 47.5192 37.8219C47.4686 37.7207 47.4307 37.607 47.4054 37.4805C47.3296 36.6715 47.3296 35.8498 47.4054 35.0154C47.456 34.6362 47.4686 34.2443 47.4434 33.8397C47.4434 33.688 47.3675 33.5363 47.2537 33.4226C47.2284 33.3973 47.1905 33.3846 47.14 33.3846C47.1147 33.3846 47.0767 33.3846 47.0262 33.3846C47.0009 33.3846 46.9756 33.3973 46.9503 33.4226C46.9124 33.4605 46.9124 33.4226 46.8745 33.4984C46.7481 33.8271 46.6596 34.1811 46.609 34.5603C46.5332 34.9396 46.4573 35.2809 46.3815 35.6222C46.3309 35.9762 46.2803 36.3301 46.2298 36.6841C46.1918 37.0254 46.1539 37.3668 46.116 37.7081C46.0401 38.0621 45.9516 38.3907 45.8505 38.6941C45.7999 38.77 45.762 38.8458 45.7367 38.9217C45.6609 38.9975 45.6609 39.1113 45.5092 39.1492C45.4586 39.1492 45.4207 39.1366 45.3954 39.1113C45.3448 39.1113 45.3196 39.0987 45.3196 39.0734C45.2943 39.0228 45.269 38.9722 45.2437 38.9217C45.2184 38.8458 45.2058 38.7573 45.2058 38.6562C45.2058 38.0115 45.3196 37.4426 45.3196 36.8737C45.3448 36.5956 45.3448 36.3175 45.3196 36.0394C45.3196 35.9256 45.2816 35.7739 45.2058 35.736C45.1552 35.7107 45.1046 35.6981 45.0541 35.6981C45.0035 35.6981 44.953 35.7107 44.9024 35.736C44.7507 35.9256 44.6369 36.1152 44.6369 36.3428C44.5611 36.6083 44.5611 36.8358 44.4852 37.0634C44.3335 37.9356 44.1818 38.7321 44.106 39.3389C44.0554 39.617 44.0554 39.8951 44.106 40.1732C44.1439 40.4008 44.2197 40.6283 44.2577 40.78C44.2956 40.9317 44.3714 41.0455 44.3714 41.1592C44.3967 41.2098 44.4094 41.2477 44.4094 41.273C44.3841 41.2477 44.3714 41.2098 44.3714 41.1592L44.2197 40.78C44.1818 40.6283 44.106 40.4387 44.0301 40.1732C43.9795 39.8951 43.9795 39.617 44.0301 39.3389C44.106 38.6941 44.2577 37.9356 44.4094 37.0254C44.4473 36.7979 44.4852 36.5703 44.5231 36.3049C44.5484 36.1784 44.5863 36.052 44.6369 35.9256C44.6622 35.7992 44.738 35.6854 44.8645 35.5843C44.9403 35.559 45.0162 35.5464 45.092 35.5464C45.1679 35.5464 45.2437 35.559 45.3196 35.5843C45.3954 35.6349 45.446 35.6981 45.4713 35.7739C45.5218 35.8498 45.5471 35.9383 45.5471 36.0394C45.5724 36.3175 45.5724 36.6083 45.5471 36.9117C45.5092 37.4805 45.4333 38.0873 45.4333 38.6941C45.4333 38.77 45.446 38.8458 45.4713 38.9217C45.4713 38.9596 45.5092 38.9975 45.5092 38.9975C45.5092 38.9596 45.585 38.9217 45.623 38.8838C45.6482 38.8079 45.6735 38.7321 45.6988 38.6562C45.8252 38.3528 45.9137 38.0368 45.9643 37.7081C46.0401 37.4047 46.0401 37.0634 46.0781 36.6841C46.1286 36.3301 46.1792 35.9762 46.2298 35.6222C46.3056 35.2683 46.3815 34.9143 46.4573 34.5603C46.5079 34.1558 46.609 33.7765 46.7607 33.4226C46.786 33.372 46.8239 33.3214 46.8745 33.2709C46.925 33.2456 46.9883 33.2203 47.0641 33.195C47.1147 33.195 47.1779 33.195 47.2537 33.195C47.3043 33.195 47.3675 33.2203 47.4434 33.2709C47.5192 33.3467 47.5824 33.4352 47.633 33.5363C47.6835 33.6375 47.7215 33.7386 47.7468 33.8397C47.772 34.042 47.772 34.2443 47.7468 34.4465C47.7088 34.6741 47.7088 34.8258 47.6709 35.0533C47.5951 35.8624 47.6077 36.6715 47.7088 37.4805C47.7341 37.5817 47.7594 37.6828 47.7847 37.7839C47.7847 37.8092 47.81 37.8345 47.8605 37.8598C47.8352 37.8598 47.8352 37.8598 47.8605 37.8598C47.8605 37.9356 47.8605 37.8598 47.8605 37.8977C47.8605 37.9356 47.8605 37.8977 47.8605 37.8598C47.9111 37.8092 47.949 37.746 47.9743 37.6702C47.9996 37.569 48.0249 37.4679 48.0501 37.3668C48.1639 36.9496 48.2398 36.5324 48.3156 36.1152C48.4168 35.2556 48.5179 34.3833 48.619 33.4984C48.5811 33.195 48.619 32.8916 48.8086 32.6262C48.8592 32.5503 48.9351 32.4871 49.0362 32.4365C49.1373 32.4112 49.2385 32.4239 49.3396 32.4745C49.4154 32.4997 49.4787 32.5503 49.5292 32.6262C49.5798 32.702 49.6177 32.7905 49.643 32.8916C49.7694 33.3467 49.82 33.8145 49.7947 34.2948C49.7947 34.7879 49.7568 35.243 49.7188 35.6981C49.6683 36.1532 49.6177 36.6083 49.5671 37.0634C49.5166 37.2909 49.4787 37.5058 49.4534 37.7081C49.4154 37.8598 49.4154 37.8598 49.4534 37.8977C49.4787 37.923 49.5039 37.9356 49.5292 37.9356C49.5545 37.9356 49.5924 37.923 49.643 37.8977C49.6809 37.8598 49.6809 37.8219 49.6809 37.6702L49.7188 37.3668L49.7947 36.6841C49.8453 36.2543 49.8958 35.8371 49.9464 35.4326C50.0222 35.0028 50.1234 34.5856 50.2498 34.1811C50.3256 33.9788 50.4268 33.7765 50.5532 33.5743C50.6038 33.4731 50.6796 33.3973 50.7807 33.3467C50.8313 33.2962 50.8945 33.2709 50.9704 33.2709C51.0462 33.2456 51.1094 33.2456 51.16 33.2709C51.2106 33.3214 51.2611 33.372 51.3117 33.4226C51.337 33.4731 51.3623 33.5363 51.3875 33.6122C51.3875 33.7133 51.3875 33.8145 51.3875 33.9156C51.3875 34.1431 51.3496 34.3328 51.3496 34.5603C51.2738 34.9396 51.1979 35.3188 51.16 35.6981C50.983 36.4313 50.9072 37.1645 50.9324 37.8977C50.9324 37.9736 50.9451 38.0494 50.9704 38.1253C50.9957 38.1505 51.0083 38.1758 51.0083 38.2011C51.1094 38.0494 51.1726 37.8977 51.1979 37.746C51.3117 37.4047 51.3875 37.0634 51.4634 36.76C51.5392 36.4313 51.6404 36.1026 51.7668 35.7739C51.8174 35.6222 51.8806 35.4832 51.9564 35.3567C52.007 35.2809 52.0702 35.205 52.146 35.1292C52.1713 35.1039 52.2092 35.0786 52.2598 35.0533C52.3104 35.0533 52.3609 35.0533 52.4115 35.0533C52.4621 35.0786 52.5126 35.1039 52.5632 35.1292C52.6138 35.1545 52.6517 35.1924 52.677 35.243C52.7023 35.3188 52.7149 35.4073 52.7149 35.5084C52.7149 35.6601 52.7023 35.8118 52.677 35.9635C52.6391 36.2669 52.6011 36.5324 52.5253 36.7979C52.4115 37.3668 52.2977 37.8598 52.146 38.3149C51.8806 39.263 51.5772 40.0594 51.3496 40.7042C51.1221 41.3489 50.9324 41.8419 50.7807 42.1832C50.7302 42.3602 50.6796 42.4866 50.629 42.5625C50.629 42.6383 50.6038 42.7015 50.5532 42.7521Z" fill="#EB996E"/>
<path d="M29.8828 53.4469C30.5655 55.9879 32.0066 59.8941 33.5236 64.0659C33.5742 64.1923 33.65 64.3061 33.7512 64.4072C33.8776 64.4831 34.004 64.521 34.1304 64.521C34.2821 64.5463 34.4212 64.521 34.5476 64.4451C34.674 64.3693 34.7625 64.2681 34.813 64.1417L38.5297 56.2913C38.5297 56.2913 37.6574 49.844 37.7333 50.0716C37.8091 50.2991 30.0724 50.9059 30.0724 50.9059L29.8828 53.4469Z" fill="#EC8951"/>
<path d="M38.2262 52.1954C38.2262 52.1954 37.7711 52.3471 37.0126 52.6126C36.0518 52.9918 35.1416 53.4469 34.282 53.9779C33.3971 54.5088 32.5754 55.1156 31.8169 55.7983C31.2101 56.2913 30.8688 56.6705 30.8688 56.6326C30.8308 56.6326 30.9446 56.5568 31.0584 56.3671C31.2607 56.1396 31.4756 55.912 31.7031 55.6845C32.4616 54.9765 33.2833 54.3445 34.1682 53.7882C35.0531 53.2573 35.9886 52.8275 36.9747 52.4988C37.2781 52.3977 37.5815 52.3092 37.8849 52.2333C37.986 52.208 38.0998 52.1954 38.2262 52.1954Z" fill="#FAFAFA"/>
<path d="M39.7067 54.1296C39.4538 53.902 39.2389 53.6365 39.0619 53.3331C38.6321 52.6252 38.2529 51.892 37.9242 51.1335C37.6208 50.375 37.3806 49.5912 37.2036 48.7822C37.1278 48.4535 37.0898 48.1248 37.0898 47.7961C37.191 48.0995 37.2795 48.4282 37.3553 48.7822C37.5576 49.5659 37.8104 50.3244 38.1138 51.0576C38.4172 51.8161 38.7712 52.5494 39.1757 53.2573C39.378 53.5354 39.555 53.8262 39.7067 54.1296Z" fill="#263238"/>
<path d="M42.1718 19.3904C41.527 20.4523 41.1099 21.6279 40.9961 22.8795C40.8823 24.0931 41.034 25.3446 41.4512 26.5202C41.8304 27.5821 42.4372 28.6061 42.3235 29.7059C42.2097 30.8058 41.3374 31.9056 41.6408 33.0054C41.8304 33.6501 42.3993 34.1431 42.5889 34.7499C42.8544 35.5084 42.5889 36.3428 42.4752 37.1013C42.1718 39.0734 42.8165 41.0834 42.9682 43.0934C43.1199 45.1034 42.5889 47.4548 40.7685 48.327C40.2376 48.5925 39.5549 48.6684 39.0998 48.2512C38.493 47.7202 38.6827 46.8101 38.8344 46.0516C40.3893 38.4666 35.5349 31.0712 36.6726 23.3725C36.8243 22.1589 37.507 20.073 38.4172 19.2007C39.2895 18.3664 41.7546 18.4422 42.5889 19.3524" fill="#263238"/>
<path d="M34.6992 41.3868C34.6992 41.3868 34.9268 41.1213 35.2681 40.5904C35.7611 39.8319 36.0645 38.9975 36.2541 38.0873C36.3806 37.4805 36.4185 36.8737 36.3679 36.2669C36.3173 35.5337 36.2921 34.8132 36.2921 34.1052C36.3173 33.7007 36.3932 33.3088 36.5196 32.9296C36.646 32.5503 36.823 32.1837 37.0506 31.8297C37.4677 31.1092 37.9987 30.4265 38.4917 29.7059C38.9847 29.0612 39.364 28.2648 39.5157 27.4304C39.5915 26.6719 39.5536 25.8755 39.4019 25.117C39.2502 24.4091 39.187 23.6885 39.2123 22.9553C39.2628 22.3232 39.3893 21.7164 39.5915 21.1349C39.8949 20.2626 40.35 19.4662 40.9568 18.7456C41.1085 18.5687 41.2729 18.3917 41.4498 18.2147C41.5257 18.1641 41.5889 18.1136 41.6395 18.063C41.6395 18.063 41.4119 18.3285 40.9947 18.8215C40.0466 19.9972 39.4778 21.4762 39.4019 22.9932C39.3766 23.7012 39.4398 24.4091 39.5915 25.117C39.7812 25.9134 39.8191 26.7099 39.7432 27.5063C39.5536 28.3406 39.1744 29.1371 38.6813 29.8576C38.1504 30.5782 37.6194 31.2229 37.2023 31.9435C37 32.2722 36.8357 32.6261 36.7092 33.0054C36.5828 33.3594 36.507 33.726 36.4817 34.1052C36.4817 34.8384 36.507 35.559 36.5575 36.2669C36.5828 36.899 36.5323 37.5185 36.4058 38.1253C36.2162 39.0355 35.8749 39.8698 35.3439 40.6283C35.2175 40.8306 35.0658 41.0328 34.8888 41.2351C34.8383 41.2857 34.7751 41.3362 34.6992 41.3868Z" fill="#455A64"/>
<path d="M31.0977 41.9557C31.1229 41.8798 31.1609 41.7913 31.2114 41.6902C31.3126 41.5132 31.439 41.2857 31.5907 41.0075C31.932 40.3628 32.3871 39.4906 32.8422 38.3528C33.4111 37.0254 33.7524 35.5843 33.7903 34.1431C33.7903 33.7386 33.7524 33.3214 33.6765 32.8916C33.6386 32.4744 33.5248 32.0573 33.4869 31.6022C33.3731 31.1471 33.4111 30.6541 33.4869 30.199C33.6386 29.7439 33.9041 29.3267 34.2454 28.9854C34.966 28.3406 35.8383 27.9235 36.2934 27.165C36.6726 26.4065 36.9002 25.5721 36.9381 24.7378C37.0392 23.954 37.2162 23.1955 37.469 22.4623C38.0758 20.8694 39.1377 19.5041 40.541 18.556C40.7685 18.4043 40.996 18.2779 41.2236 18.1768C41.3247 18.1262 41.4132 18.0883 41.4891 18.063C41.4891 18.063 41.1477 18.2147 40.5789 18.6319C39.7825 19.2007 39.0998 19.9213 38.5309 20.7177C38.1517 21.274 37.8483 21.8681 37.6207 22.5002C37.3679 23.2334 37.2036 23.9919 37.1277 24.7757C37.0139 25.5721 36.9381 26.4823 36.4451 27.2787C35.952 28.0752 35.0798 28.5303 34.3971 29.175C34.0558 29.4784 33.7903 29.8956 33.6765 30.3127C33.5754 30.7678 33.5628 31.2103 33.6386 31.6401C33.7145 32.0952 33.7903 32.5124 33.8662 32.9296C33.942 33.3594 33.9673 33.7892 33.942 34.219C33.9041 35.6981 33.5628 37.1392 32.956 38.4666C32.5767 39.3768 32.1469 40.2617 31.6665 41.1213L31.2494 41.7281C31.1988 41.804 31.1482 41.8798 31.0977 41.9557Z" fill="#455A64"/>
<path d="M156.591 149.131C156.591 149.081 156.604 149.03 156.629 148.98C156.705 148.853 156.781 148.702 156.856 148.525C157.134 147.918 157.349 147.298 157.501 146.666C157.918 145.036 158.07 142.532 157.425 139.574C157.097 137.981 156.667 136.401 156.136 134.834C155.567 133.127 154.922 131.345 154.391 129.41C153.784 127.4 153.519 125.277 153.557 123.191C153.633 120.991 154.277 118.791 154.998 116.592C155.719 114.392 156.439 112.268 156.667 110.107C156.894 108.021 156.477 105.935 155.491 104.115C154.543 102.37 153.329 100.853 152.457 99.336C151.623 97.8949 150.978 96.34 150.599 94.7092C150.068 92.3578 150.03 89.9306 150.485 87.5793C150.662 86.7197 150.915 85.8727 151.243 85.0383C151.243 85.1142 151.231 85.1774 151.206 85.228L151.054 85.6831C150.94 86.1382 150.75 86.745 150.599 87.5793C150.182 89.9306 150.22 92.3578 150.788 94.6713C151.168 96.2641 151.774 97.819 152.609 99.2222C153.519 100.739 154.695 102.256 155.681 104.039C156.705 105.897 157.16 108.021 156.894 110.145C156.667 112.344 155.946 114.506 155.226 116.668C154.505 118.867 153.86 121.029 153.784 123.191C153.747 125.277 154.012 127.363 154.619 129.373C155.112 131.307 155.757 133.089 156.325 134.796C156.856 136.363 157.286 137.956 157.615 139.574C158.222 142.57 158.032 145.073 157.615 146.704C157.438 147.336 157.21 147.943 156.932 148.525L156.705 148.98C156.654 149.03 156.616 149.081 156.591 149.131Z" fill="#263238"/>
<path d="M153.671 100.853C153.671 100.853 151.85 95.0505 155.112 91.6373C155.137 91.612 155.162 91.5993 155.188 91.5993C155.238 91.5741 155.276 91.5741 155.301 91.5993C155.327 91.5993 155.352 91.612 155.377 91.6373C155.402 91.6625 155.428 91.7005 155.453 91.751C155.605 92.6992 155.832 95.6194 153.671 100.853Z" fill="#EC8951"/>
<path d="M154.732 93.5714C154.732 93.9254 154.694 94.2794 154.619 94.6333C154.505 95.3918 154.353 96.2641 154.201 97.2122C154.05 98.1603 153.936 99.0326 153.784 99.7532C153.759 100.132 153.696 100.486 153.595 100.815C153.569 100.461 153.582 100.107 153.633 99.7532C153.708 99.1085 153.822 98.1983 153.974 97.1743C154.126 96.1883 154.315 95.2781 154.467 94.6333C154.518 94.2794 154.606 93.9254 154.732 93.5714Z" fill="#263238"/>
<path d="M155.795 114.544C155.795 114.544 156.895 108.552 161.37 107.073C161.395 107.073 161.433 107.073 161.484 107.073C161.509 107.073 161.534 107.085 161.559 107.111C161.585 107.161 161.61 107.199 161.635 107.224C161.635 107.25 161.635 107.288 161.635 107.338C161.332 108.248 160.156 110.941 155.795 114.544Z" fill="#EC8951"/>
<path d="M160.155 108.628C159.978 108.931 159.776 109.222 159.548 109.5L157.993 111.586L156.439 113.672C156.236 113.95 156.009 114.228 155.756 114.506C155.908 114.177 156.085 113.861 156.287 113.558C156.666 112.989 157.197 112.268 157.804 111.434C158.411 110.638 158.979 109.917 159.435 109.424C159.637 109.121 159.877 108.855 160.155 108.628Z" fill="#263238"/>
<path d="M154.582 129.524C154.582 129.524 153.899 123.494 157.767 120.764C157.793 120.738 157.818 120.726 157.843 120.726C157.894 120.726 157.932 120.738 157.957 120.764C158.007 120.789 158.033 120.814 158.033 120.839C158.058 120.865 158.071 120.903 158.071 120.953C158.071 121.901 157.729 124.822 154.582 129.524Z" fill="#EC8951"/>
<path d="M157.046 122.622C156.97 122.976 156.856 123.317 156.705 123.646L155.832 126.073C155.491 126.983 155.188 127.818 154.922 128.5C154.846 128.854 154.72 129.196 154.543 129.524C154.594 129.145 154.682 128.791 154.808 128.462C154.998 127.818 155.264 126.945 155.605 125.997C155.984 125.049 156.325 124.177 156.591 123.57C156.717 123.241 156.869 122.925 157.046 122.622Z" fill="#263238"/>
<path d="M157.955 144.618C157.955 144.618 157.5 138.55 161.445 135.971C161.47 135.946 161.495 135.934 161.52 135.934C161.571 135.934 161.609 135.946 161.634 135.971C161.659 135.997 161.685 136.022 161.71 136.047C161.735 136.073 161.748 136.111 161.748 136.161C161.71 137.147 161.255 140.029 157.955 144.618Z" fill="#EC8951"/>
<path d="M160.649 137.792C160.573 138.146 160.446 138.487 160.269 138.816C160.004 139.498 159.663 140.333 159.321 141.205C158.942 142.077 158.601 142.912 158.335 143.594C158.209 143.948 158.07 144.277 157.918 144.58C157.969 144.226 158.057 143.885 158.183 143.556C158.373 142.912 158.714 142.039 159.094 141.129C159.473 140.181 159.852 139.347 160.156 138.74C160.282 138.411 160.446 138.095 160.649 137.792Z" fill="#263238"/>
<path d="M151.054 95.7332C151.054 95.7332 145.668 92.9267 145.555 88.224C145.555 88.1987 145.567 88.1608 145.593 88.1103C145.593 88.085 145.618 88.0597 145.668 88.0344C145.694 88.0344 145.719 88.0344 145.744 88.0344C145.795 88.0344 145.833 88.0344 145.858 88.0344C146.655 88.6033 148.892 90.4995 151.054 95.7332Z" fill="#EC8951"/>
<path d="M146.654 89.8548C146.907 90.1076 147.135 90.3858 147.337 90.6891C147.792 91.2959 148.285 92.0165 148.854 92.775L150.371 94.8988C150.598 95.1769 150.801 95.4677 150.978 95.7711C150.7 95.5435 150.459 95.2781 150.257 94.9747C149.84 94.4816 149.271 93.7611 148.664 92.9267C148.095 92.0924 147.564 91.3339 147.185 90.765C146.983 90.4869 146.806 90.1835 146.654 89.8548Z" fill="#263238"/>
<path d="M156.819 108.21C156.857 108.21 151.282 105.745 150.902 101.043C150.902 100.992 150.902 100.954 150.902 100.929C150.928 100.904 150.953 100.878 150.978 100.853C151.029 100.828 151.067 100.815 151.092 100.815C151.143 100.815 151.18 100.828 151.206 100.853C152.04 101.346 154.354 103.129 156.857 108.21H156.819Z" fill="#EC8951"/>
<path d="M152.115 102.598C152.393 102.825 152.634 103.091 152.836 103.394L154.467 105.404L156.135 107.376C156.388 107.654 156.616 107.945 156.818 108.248C156.515 108.021 156.249 107.768 156.021 107.49C155.566 106.997 154.96 106.314 154.315 105.518C153.67 104.759 153.101 104.039 152.722 103.47C152.494 103.192 152.292 102.901 152.115 102.598Z" fill="#263238"/>
<path d="M153.633 122.129C153.633 122.129 149.841 117.388 151.623 113.027C151.623 113.002 151.636 112.976 151.661 112.951C151.711 112.926 151.749 112.913 151.775 112.913C151.825 112.913 151.863 112.913 151.888 112.913C151.914 112.938 151.939 112.964 151.964 112.989C152.495 113.823 153.747 116.478 153.633 122.129Z" fill="#EC8951"/>
<path d="M152.002 114.961C152.128 115.29 152.217 115.631 152.267 115.985C152.419 116.706 152.609 117.578 152.836 118.526C153.026 119.474 153.216 120.346 153.367 121.067C153.468 121.396 153.544 121.75 153.595 122.129C153.418 121.8 153.291 121.459 153.216 121.105C153.026 120.46 152.798 119.588 152.571 118.564C152.381 117.578 152.192 116.668 152.116 116.023C152.04 115.669 152.002 115.315 152.002 114.961Z" fill="#263238"/>
<path d="M157.425 138.475C157.425 138.475 151.926 135.896 151.622 131.193C151.597 131.168 151.597 131.142 151.622 131.117C151.648 131.067 151.673 131.029 151.698 131.003C151.724 131.003 151.762 131.003 151.812 131.003C151.837 131.003 151.875 131.003 151.926 131.003C152.722 131.534 155.036 133.355 157.425 138.475Z" fill="#EC8951"/>
<path d="M152.799 132.786C153.052 133.013 153.279 133.279 153.481 133.582L155.112 135.63L156.705 137.64C156.958 137.918 157.185 138.209 157.388 138.512C157.084 138.285 156.832 138.032 156.629 137.754C156.174 137.261 155.567 136.54 154.961 135.744C154.316 134.947 153.785 134.227 153.368 133.658C153.14 133.38 152.951 133.089 152.799 132.786Z" fill="#263238"/>
<path d="M168.386 114.582C168.386 114.582 168.386 114.62 168.386 114.696C168.386 114.771 168.386 114.923 168.386 115.075C168.386 115.454 168.348 115.947 168.31 116.554C168.272 117.843 168.158 119.664 168.045 121.825C167.665 124.025 166.528 126.452 165.011 128.842C163.911 130.586 162.735 132.179 161.749 133.658C160.839 134.947 160.03 136.287 159.322 137.678C158.842 138.639 158.462 139.638 158.184 140.674C158.083 141.028 158.007 141.306 157.957 141.508C157.957 141.61 157.931 141.711 157.881 141.812C157.881 141.711 157.893 141.61 157.919 141.508C157.944 141.306 158.007 141.015 158.108 140.636C158.361 139.6 158.715 138.601 159.17 137.64C159.878 136.199 160.687 134.834 161.597 133.544C162.584 132.065 163.721 130.472 164.859 128.728C166.338 126.376 167.438 123.987 167.893 121.788C168.045 119.664 168.159 117.843 168.272 116.554C168.298 115.947 168.335 115.454 168.386 115.075C168.386 114.923 168.386 114.809 168.424 114.696C168.399 114.645 168.386 114.607 168.386 114.582Z" fill="#263238"/>
<path d="M165.123 128.386C165.123 128.386 167.437 122.774 164.517 119.095C164.491 119.07 164.453 119.044 164.403 119.019C164.378 119.019 164.352 119.019 164.327 119.019C164.276 119.044 164.239 119.07 164.213 119.095C164.188 119.12 164.163 119.145 164.137 119.171C163.91 120.119 163.417 123.001 165.123 128.386Z" fill="#EC8951"/>
<path d="M164.669 121.067C164.77 121.421 164.833 121.775 164.859 122.129C164.972 122.774 165.048 123.684 165.124 124.708C165.2 125.732 165.238 126.642 165.238 127.325C165.263 127.679 165.238 128.033 165.162 128.386C165.086 128.033 165.048 127.679 165.048 127.325C164.998 126.566 164.947 125.706 164.896 124.746C164.821 123.76 164.783 122.887 164.707 122.129C164.656 121.775 164.644 121.421 164.669 121.067Z" fill="#263238"/>
<g opacity="0.3">
<path d="M165.123 128.386C165.123 128.386 167.437 122.774 164.517 119.095C164.491 119.07 164.453 119.044 164.403 119.019C164.378 119.019 164.352 119.019 164.327 119.019C164.276 119.044 164.239 119.07 164.213 119.095C164.188 119.12 164.163 119.145 164.137 119.171C163.91 120.119 163.417 123.001 165.123 128.386Z" fill="black"/>
</g>
<path d="M157.881 141.926C157.881 141.926 159.739 136.161 156.515 132.71C156.49 132.685 156.465 132.672 156.439 132.672C156.414 132.647 156.376 132.647 156.326 132.672C156.3 132.672 156.275 132.685 156.25 132.71C156.224 132.735 156.199 132.773 156.174 132.824C156.022 133.772 155.757 136.692 157.881 141.926Z" fill="#EC8951"/>
<path d="M156.855 134.644C156.982 134.973 157.07 135.327 157.121 135.706C157.273 136.351 157.424 137.261 157.576 138.247C157.766 139.233 157.842 140.181 157.917 140.826C157.968 141.18 157.968 141.534 157.917 141.888C157.842 141.559 157.791 141.218 157.766 140.864C157.652 140.105 157.5 139.233 157.386 138.285C157.235 137.337 157.083 136.464 157.007 135.706C156.906 135.352 156.855 134.998 156.855 134.644Z" fill="#263238"/>
<g opacity="0.3">
<path d="M157.881 141.926C157.881 141.926 159.739 136.161 156.515 132.71C156.49 132.685 156.465 132.672 156.439 132.672C156.414 132.647 156.376 132.647 156.326 132.672C156.3 132.672 156.275 132.685 156.25 132.71C156.224 132.735 156.199 132.773 156.174 132.824C156.022 133.772 155.757 136.692 157.881 141.926Z" fill="black"/>
</g>
<path d="M168.082 121.522C168.082 121.522 173.05 118.033 172.557 113.368C172.557 113.343 172.545 113.305 172.519 113.254C172.494 113.229 172.469 113.217 172.443 113.217C172.393 113.191 172.355 113.179 172.33 113.179C172.279 113.204 172.241 113.229 172.216 113.254C171.495 113.899 169.561 116.061 168.082 121.522Z" fill="#EC8951"/>
<g opacity="0.3">
<path d="M168.082 121.522C168.082 121.522 173.05 118.033 172.557 113.368C172.557 113.343 172.545 113.305 172.519 113.254C172.494 113.229 172.469 113.217 172.443 113.217C172.393 113.191 172.355 113.179 172.33 113.179C172.279 113.204 172.241 113.229 172.216 113.254C171.495 113.899 169.561 116.061 168.082 121.522Z" fill="black"/>
</g>
<path d="M171.646 115.113C171.545 115.467 171.406 115.795 171.229 116.099C170.963 116.706 170.546 117.54 170.053 118.412C169.598 119.322 169.105 120.119 168.764 120.688C168.587 120.991 168.372 121.282 168.119 121.56C168.271 121.206 168.435 120.877 168.612 120.574C168.991 119.929 169.409 119.171 169.864 118.298L171.115 116.023C171.267 115.72 171.444 115.416 171.646 115.113Z" fill="#263238"/>
<path d="M159.891 136.199C159.891 136.199 165.921 135.251 167.514 130.852C167.514 130.801 167.514 130.763 167.514 130.738C167.514 130.687 167.501 130.649 167.476 130.624C167.45 130.599 167.412 130.586 167.362 130.586C167.337 130.561 167.311 130.561 167.286 130.586C166.338 130.852 163.607 131.913 159.891 136.199Z" fill="#EC8951"/>
<g opacity="0.3">
<path d="M159.891 136.199C159.891 136.199 165.921 135.251 167.514 130.852C167.514 130.801 167.514 130.763 167.514 130.738C167.514 130.687 167.501 130.649 167.476 130.624C167.45 130.599 167.412 130.586 167.362 130.586C167.337 130.561 167.311 130.561 167.286 130.586C166.338 130.852 163.607 131.913 159.891 136.199Z" fill="black"/>
</g>
<path d="M165.92 132.027C165.692 132.28 165.427 132.508 165.123 132.71C164.592 133.127 163.872 133.696 163.038 134.265C162.241 134.872 161.445 135.365 160.876 135.744C160.572 135.946 160.256 136.111 159.928 136.237C160.206 135.984 160.497 135.769 160.8 135.592L162.924 134.075L165.01 132.558C165.313 132.356 165.616 132.166 165.92 131.989V132.027Z" fill="#263238"/>
<path d="M154.163 147.273L152.418 159.068H163.34L161.899 147.235L154.163 147.273Z" fill="#455A64"/>
<path d="M162.355 150.914C162.355 150.99 160.383 151.028 157.956 151.028C155.529 151.028 153.557 150.99 153.557 150.914C155.023 150.787 156.49 150.75 157.956 150.8C159.422 150.75 160.889 150.787 162.355 150.914Z" fill="#263238"/>
<path d="M162.582 151.862C162.582 151.9 160.534 151.976 158.031 151.976C155.49 151.976 153.48 151.9 153.48 151.862C153.48 151.786 155.49 151.748 158.031 151.748C160.534 151.748 162.582 151.786 162.582 151.862Z" fill="#263238"/>
<path d="M120.108 32.8158C120.108 32.8158 120.007 32.8158 119.804 32.8158C119.501 32.8158 119.21 32.8158 118.932 32.8158C117.832 32.8916 116.732 33.1571 115.708 33.5743C114.078 34.2569 112.637 35.3567 111.575 36.7979C110.93 37.6702 110.437 38.6562 110.171 39.7181C109.489 42.2211 109.868 44.9138 111.157 47.1514C111.511 47.7835 111.941 48.365 112.447 48.8959C112.94 49.4269 113.547 49.882 114.191 50.2612C114.874 50.6025 115.633 50.8301 116.391 50.7922C117.188 50.7922 117.908 50.4888 118.515 49.9578C118.793 49.6544 118.995 49.3131 119.122 48.9338C119.273 48.5546 119.349 48.1627 119.349 47.7582C119.349 46.9238 119.084 46.0895 118.591 45.4448C117.605 44.0415 116.012 43.1313 114.305 42.6004C112.561 42.1074 110.702 42.1074 108.92 42.5245C108.01 42.7774 107.15 43.1313 106.341 43.5864C105.507 44.0415 104.748 44.6104 104.103 45.331C103.952 45.4827 103.762 45.6723 103.648 45.8619L103.193 46.4308C102.94 46.8353 102.713 47.2525 102.511 47.6823C102.093 48.5925 101.828 49.5406 101.676 50.4888C101.411 52.4229 101.676 54.395 102.435 56.1775C103.193 57.922 104.483 59.4011 106.113 60.3492C106.91 60.8043 107.782 61.0698 108.692 61.1457C109.603 61.1836 110.475 60.994 111.271 60.5389C112.03 60.0838 112.637 59.439 112.978 58.6426C113.319 57.8462 113.357 56.936 113.054 56.1396C112.75 55.3432 112.257 54.6605 111.613 54.1296C111.006 53.5986 110.285 53.1814 109.527 52.916C108.048 52.4229 106.417 52.4229 104.9 52.8401C103.497 53.2194 102.207 53.9399 101.107 54.926C100.159 55.8741 99.4008 57.0118 98.9457 58.3013C98.1492 60.5009 98.1872 62.9281 99.0594 65.1278C99.7042 66.7585 100.804 68.1997 102.169 69.2995C103.042 69.9822 103.99 70.551 105.052 70.9682C105.406 71.0946 105.671 71.1958 105.848 71.2716L106.151 71.3475C106.151 71.3475 106.05 71.3222 105.848 71.2716C105.57 71.1958 105.292 71.1073 105.014 71.0061C103.99 70.6269 103.004 70.058 102.131 69.3754C100.728 68.2755 99.6283 66.8344 98.9457 65.1657C98.0734 62.9661 98.0355 60.5009 98.8319 58.2634C99.287 56.9739 100.008 55.7983 100.994 54.8501C102.093 53.8262 103.421 53.1056 104.862 52.6884C106.417 52.2712 108.048 52.3092 109.565 52.7643C110.361 53.0297 111.12 53.4848 111.726 54.0158C112.409 54.5847 112.902 55.3052 113.205 56.1016C113.547 56.9739 113.509 57.8841 113.167 58.7185C112.788 59.5528 112.181 60.2355 111.385 60.6906C110.551 61.1836 109.64 61.3732 108.73 61.3353C107.782 61.2594 106.872 60.994 106.076 60.5389C104.369 59.5528 103.079 58.0737 102.321 56.2913C101.525 54.4709 101.259 52.4609 101.525 50.4888C101.676 49.5027 101.942 48.5546 102.359 47.6444C102.586 47.1893 102.827 46.7595 103.079 46.355L103.535 45.7482C103.648 45.5585 103.838 45.3689 103.99 45.2172C104.672 44.4966 105.431 43.8898 106.265 43.4347C107.125 42.9796 108.01 42.6257 108.92 42.3728C110.74 41.9177 112.637 41.9557 114.419 42.4487C116.164 42.9796 117.756 43.9278 118.78 45.3689C119.311 46.0516 119.577 46.9238 119.577 47.7582C119.615 48.6304 119.273 49.4648 118.705 50.0716C118.098 50.6405 117.301 50.9818 116.467 50.9818C115.671 51.0197 114.874 50.7922 114.191 50.4129C113.509 50.0337 112.902 49.5786 112.409 49.0097C111.878 48.4787 111.436 47.8972 111.082 47.2652C109.754 44.9517 109.413 42.2591 110.096 39.6802C110.399 38.6183 110.892 37.5943 111.537 36.722C112.637 35.2809 114.078 34.1811 115.708 33.4984C116.77 33.0812 117.87 32.8537 118.97 32.8158C119.273 32.7905 119.564 32.7905 119.842 32.8158H120.108Z" fill="#263238"/>
<path d="M132.773 70.7786H79.5645L79.6024 111.775H132.773V70.7786Z" fill="#EC8951"/>
<path d="M79.6035 70.7786L89.3881 79.9564H141.687L132.774 70.7786H79.6035Z" fill="#EC8951"/>
<path d="M79.6035 70.7786L132.774 70.6648H132.812L132.85 70.7027L141.687 79.7668L141.762 79.8806L141.914 80.0323H141.687L89.4261 79.9943H89.3881L79.6035 70.7786L89.464 79.8806H89.3881L141.687 79.8426L141.611 79.9943L141.497 79.9185L132.698 70.8544L132.736 70.8924L79.6035 70.7786Z" fill="#263238"/>
<path d="M95.5697 89.7031C95.2663 89.7031 95.0008 89.8169 94.8112 90.0444C94.5837 90.234 94.5078 90.5374 94.5078 90.8029C94.5078 91.1063 94.6216 91.3718 94.8112 91.5614C95.0388 91.789 95.3042 91.9027 95.6076 91.9027C95.8731 91.9027 96.1765 91.789 96.3661 91.5614C96.5558 91.3718 96.7075 91.1063 96.7075 90.8029C96.7075 90.5374 96.5937 90.234 96.4041 90.0444C96.2144 89.8169 95.911 89.7031 95.6456 89.7031" fill="#263238"/>
<path d="M108.122 89.7031C107.819 89.7031 107.554 89.8169 107.364 90.0444C107.174 90.234 107.061 90.5374 107.061 90.8029C107.061 91.1063 107.174 91.3718 107.402 91.5614C107.591 91.789 107.895 91.8648 108.16 91.8648C108.464 91.8648 108.729 91.789 108.919 91.5614C109.146 91.3718 109.26 91.1063 109.26 90.8029C109.26 90.5374 109.146 90.234 108.957 90.0444C108.767 89.8169 108.502 89.7031 108.198 89.7031" fill="#263238"/>
<path d="M108.198 99.5256C107.971 98.6534 107.629 97.857 107.136 97.1364C106.605 96.3779 105.923 95.7332 105.126 95.2401C104.178 94.5954 103.041 94.2541 101.903 94.2162C100.765 94.1782 99.6273 94.4816 98.6413 95.0505C97.8069 95.5056 97.0863 96.1124 96.5175 96.8709C95.9865 97.5535 95.6073 98.35 95.3418 99.1464C95.3418 99.0958 95.3544 99.0453 95.3797 98.9947C95.405 98.8177 95.4556 98.6407 95.5314 98.4637C95.721 97.857 96.0244 97.2881 96.4037 96.7571C96.9726 95.9986 97.6931 95.3539 98.5654 94.8609C99.5515 94.292 100.727 93.9507 101.903 93.9886C103.116 94.0265 104.254 94.4058 105.24 95.0505C106.037 95.5815 106.719 96.2641 107.25 97.0605C107.629 97.5915 107.895 98.1983 108.047 98.8051C108.097 98.9821 108.135 99.159 108.16 99.336C108.186 99.3866 108.198 99.4498 108.198 99.5256Z" fill="#263238"/>
<path opacity="0.5" d="M79.7168 71.2337L89.1222 83.1421H132.774V79.9564H89.3876L79.7168 71.2337Z" fill="black"/>
<path d="M122.268 111.7C122.23 111.7 122.154 104.57 122.154 95.7711C122.154 86.9725 122.23 79.8426 122.268 79.8426C122.306 79.8426 122.382 86.9725 122.382 95.7711C122.382 104.57 122.344 111.7 122.268 111.7Z" fill="#263238"/>
<path d="M130.612 102.408H125.947V107.679H130.612V102.408Z" fill="#F5F5F5"/>
<path d="M79.604 70.7786L68.6816 79.9564H79.5661L79.604 70.7786Z" fill="#EC8951"/>
<g opacity="0.4">
<path d="M79.604 70.7786L68.6816 79.9564H79.5661L79.604 70.7786Z" fill="black"/>
</g>
<path d="M134.328 111.775H73.1934V158.954H134.328V111.775Z" fill="#EC8951"/>
<path opacity="0.3" d="M134.328 111.775H73.1934V158.954H134.328V111.775Z" fill="black"/>
<path d="M119.006 158.613C118.968 158.613 118.893 148.107 118.893 135.137C118.893 122.167 118.968 111.662 119.006 111.662C119.082 111.662 119.12 122.167 119.12 135.137C119.12 148.107 119.082 158.613 119.006 158.613Z" fill="#263238"/>
<path d="M129.134 148.221H124.469V153.493H129.134V148.221Z" fill="#F5F5F5"/>
<path d="M98.7938 111.927H91.8535V121.977H98.7938V111.927Z" fill="#263238"/>
<path d="M98.7938 148.752H91.8535V158.802H98.7938V148.752Z" fill="#263238"/>
<path d="M133.798 111.775H133.646H133.191L131.409 111.813L124.924 111.851L103.496 111.889L82.0684 111.851H75.5832L73.8008 111.813H75.5832L82.0684 111.775L103.496 111.737L124.924 111.775L131.409 111.813H133.191H133.646L133.798 111.775Z" fill="#263238"/>
<path d="M29.012 30.161L22.3752 28.5303H22.4131C20.7065 29.5922 18.6965 30.199 16.6485 30.2369C15.4729 30.2369 14.2593 30.0852 13.1215 29.7059C11.0736 29.0612 9.2911 27.8476 7.9258 26.2168C6.56051 24.5481 5.68823 22.5761 5.42276 20.4523C5.23314 18.8594 5.38484 17.2286 5.87786 15.6737C6.37088 14.1567 7.20523 12.7535 8.30505 11.5778C8.88657 10.9205 9.53129 10.3516 10.2392 9.87122C10.5805 9.64367 10.9219 9.41612 11.3011 9.2265L11.87 8.96102L12.1734 8.80932L12.4389 8.69555C13.9559 8.12667 15.6246 7.8612 17.2553 7.97498C19.417 8.12667 21.5029 8.88517 23.2475 10.2505C24.992 11.5778 26.2814 13.3603 27.002 15.4462C27.3813 16.6218 27.6088 17.8354 27.6088 19.049C27.6467 21.0591 27.0779 23.0691 26.016 24.8136V24.7378C27.8743 28.0752 28.8224 29.7818 29.012 30.161C28.7845 29.7818 27.8364 28.1131 25.9022 24.8136V24.7757V24.7378C26.9262 23.0312 27.4571 21.0591 27.4192 19.049C27.4192 17.8354 27.1916 16.6598 26.8124 15.522C26.1297 13.512 24.8403 11.7295 23.1337 10.4022C21.4271 9.11272 19.3791 8.35422 17.2174 8.20252C15.6246 8.08875 14.0317 8.35422 12.5147 8.9231L12.2492 9.03687L11.9838 9.15065L11.4149 9.41612C11.0356 9.60574 10.6943 9.83329 10.353 10.0608C9.64506 10.5412 9.01298 11.0848 8.45675 11.6916C7.35693 12.8673 6.56051 14.2705 6.06748 15.7496C5.57446 17.2666 5.42276 18.8594 5.65031 20.4143C5.99163 23.2966 7.4707 25.9514 9.7462 27.7338C10.7702 28.5303 11.9079 29.1371 13.1594 29.5542C14.2972 29.8956 15.4729 30.0852 16.6485 30.0852C18.6585 30.0473 20.6306 29.4784 22.3373 28.4165H22.3752H22.4131L29.012 30.161Z" fill="#263238"/>
<path d="M15.5859 14.1567L15.9273 19.7317C15.9273 19.9592 16.041 20.1489 16.1927 20.3006C16.3444 20.4523 16.5341 20.566 16.7616 20.566C16.9892 20.604 17.2167 20.5281 17.4063 20.3764C17.596 20.2247 17.7097 19.9972 17.7097 19.7696L18.3545 14.1947C18.3545 14.0935 18.3418 13.9924 18.3165 13.8913C18.2912 13.7901 18.2407 13.7016 18.1648 13.6258C18.089 13.5499 18.0005 13.4994 17.8994 13.4741C17.8235 13.4235 17.735 13.3982 17.6339 13.3982H16.2686C16.1675 13.3982 16.079 13.4235 16.0031 13.4741C15.902 13.4994 15.8261 13.5499 15.7756 13.6258C15.6997 13.7016 15.6491 13.7901 15.6239 13.8913C15.5986 13.9671 15.5859 14.0556 15.5859 14.1567Z" fill="#EC8951"/>
<path d="M18.2404 23.6759C18.1646 23.9413 18.0129 24.1689 17.7853 24.3206C17.5578 24.5102 17.3302 24.5861 17.0647 24.624C16.7993 24.624 16.4959 24.5861 16.2683 24.4344C16.0408 24.3206 15.8511 24.093 15.7374 23.8655C15.6236 23.638 15.5857 23.3725 15.6236 23.107C15.6236 22.8415 15.7374 22.5761 15.927 22.3864C16.1166 22.1589 16.3442 22.0072 16.6096 21.9693C16.8372 21.8934 17.1406 21.8934 17.3681 21.9693C17.5451 22.0198 17.6968 22.1083 17.8232 22.2347C17.9749 22.3611 18.0887 22.5002 18.1646 22.6519C18.2404 22.8036 18.291 22.9806 18.3163 23.1829C18.3163 23.3598 18.291 23.5242 18.2404 23.6759Z" fill="#EC8951"/>
</g>
</g>
</g>
<defs>
<clipPath id="clip0_585_8497">
<rect width="172.19" height="161.56" fill="white" transform="translate(0.410156 0.389999)"/>
</clipPath>
<clipPath id="clip1_585_8497">
<rect width="172.19" height="161.56" fill="white" transform="translate(0.410156 0.389999)"/>
</clipPath>
<clipPath id="clip2_585_8497">
<rect width="172.179" height="161.56" fill="white" transform="translate(0.416016 0.389999)"/>
</clipPath>
</defs>
</svg>
