<svg width="207" height="86" viewBox="0 0 207 86" fill="none" xmlns="http://www.w3.org/2000/svg">
<g clip-path="url(#clip0_585_8220)">
<rect x="1" y="1.39" width="205" height="83" fill="#F8F8F8"/>
<rect x="0.5" y="0.889999" width="206" height="84" stroke="#EEEEEE"/>
<path d="M105.21 55.6C103.367 55.6 101.663 55.2967 100.1 54.69C98.5367 54.06 97.1834 53.185 96.0401 52.065C94.8967 50.945 93.9984 49.6267 93.3451 48.11C92.7151 46.5933 92.4001 44.9367 92.4001 43.14C92.4001 41.3433 92.7151 39.6867 93.3451 38.17C93.9984 36.6533 94.8967 35.335 96.0401 34.215C97.2067 33.095 98.5717 32.2317 100.135 31.625C101.698 30.995 103.402 30.68 105.245 30.68C107.018 30.68 108.687 30.9833 110.25 31.59C111.813 32.1733 113.132 33.06 114.205 34.25L112.56 35.895C111.557 34.8683 110.448 34.1333 109.235 33.69C108.022 33.2233 106.715 32.99 105.315 32.99C103.845 32.99 102.48 33.2467 101.22 33.76C99.9601 34.25 98.8634 34.9617 97.9301 35.895C96.9967 36.805 96.2617 37.8783 95.7251 39.115C95.2117 40.3283 94.9551 41.67 94.9551 43.14C94.9551 44.61 95.2117 45.9633 95.7251 47.2C96.2617 48.4133 96.9967 49.4867 97.9301 50.42C98.8634 51.33 99.9601 52.0417 101.22 52.555C102.48 53.045 103.845 53.29 105.315 53.29C106.715 53.29 108.022 53.0567 109.235 52.59C110.448 52.1233 111.557 51.3767 112.56 50.35L114.205 51.995C113.132 53.185 111.813 54.0833 110.25 54.69C108.687 55.2967 107.007 55.6 105.21 55.6Z" fill="#969696"/>
</g>
<defs>
<clipPath id="clip0_585_8220">
<rect width="207" height="85" fill="white" transform="translate(0 0.389999)"/>
</clipPath>
</defs>
</svg>
