<svg width="116" height="51" viewBox="0 0 116 51" fill="none" xmlns="http://www.w3.org/2000/svg">
<path d="M4.64 13.0524V11.1724H17.12V13.0524L13.76 13.4124C13.7333 15.039 13.7067 16.6924 13.68 18.3724C13.68 20.0257 13.68 21.6924 13.68 23.3724V28.6124C13.68 31.1724 13.6 33.2924 13.44 34.9724C13.28 36.6257 12.9867 37.9857 12.56 39.0524C12.1333 40.1457 11.5067 41.1057 10.68 41.9324C9.02667 43.5857 7 44.4124 4.6 44.4124C3.69333 44.4124 2.86667 44.239 2.12 43.8924C1.34667 43.5724 0.8 42.999 0.48 42.1724C0.56 41.3457 0.866667 40.7324 1.4 40.3324C1.90667 39.9324 2.53333 39.7324 3.28 39.7324C3.89333 39.7324 4.45333 39.8657 4.96 40.1324C5.46667 40.399 6.01333 40.8257 6.6 41.4124L7.48 42.3324C7.96 41.7457 8.28 41.0124 8.44 40.1324C8.62667 39.2524 8.72 38.159 8.72 36.8524C8.72 36.079 8.70667 35.1324 8.68 34.0124C8.68 32.8657 8.65333 31.4124 8.6 29.6524C8.57333 27.8657 8.54667 25.6657 8.52 23.0524C8.49333 20.4124 8.45333 17.2124 8.4 13.4524L4.64 13.0524ZM30.6847 38.3724C29.1914 38.3724 27.7114 38.1857 26.2447 37.8124C24.778 37.439 23.5247 36.919 22.4847 36.2524L22.7247 30.4924H25.8047L26.6047 35.3324C27.218 35.599 27.8447 35.8124 28.4847 35.9724C29.1247 36.1057 29.8447 36.1724 30.6447 36.1724C32.298 36.1724 33.5914 35.7857 34.5247 35.0124C35.4847 34.2124 35.9647 33.159 35.9647 31.8524C35.9647 30.679 35.6314 29.759 34.9647 29.0924C34.298 28.4257 33.2314 27.799 31.7647 27.2124L30.1247 26.5324C27.938 25.599 26.1914 24.479 24.8847 23.1724C23.6047 21.8657 22.9647 20.159 22.9647 18.0524C22.9647 16.479 23.3647 15.1324 24.1647 14.0124C24.9647 12.8657 26.0714 11.999 27.4847 11.4124C28.9247 10.799 30.578 10.4924 32.4447 10.4924C33.8314 10.4924 35.1247 10.679 36.3247 11.0524C37.5247 11.4257 38.578 11.9324 39.4847 12.5724L39.2047 17.9724H36.1647L35.3647 13.3324C34.4314 12.9057 33.4314 12.6924 32.3647 12.6924C31.0314 12.6924 29.898 13.0524 28.9647 13.7724C28.0314 14.4657 27.5647 15.4657 27.5647 16.7724C27.5647 17.919 27.9247 18.8524 28.6447 19.5724C29.3647 20.2924 30.378 20.919 31.6847 21.4524L33.4047 22.1724C36.018 23.2657 37.8714 24.439 38.9647 25.6924C40.0847 26.9457 40.6447 28.559 40.6447 30.5324C40.6447 32.879 39.7514 34.7724 37.9647 36.2124C36.2047 37.6524 33.778 38.3724 30.6847 38.3724ZM46.585 13.0524V11.1724H58.505V13.0524L55.065 13.4524C55.0383 15.1057 55.0117 16.7724 54.985 18.4524C54.985 20.1324 54.985 21.839 54.985 23.5724V25.4924L64.665 13.5724L61.905 13.0524V11.1724H71.145V13.0524L67.305 13.5724L61.305 20.7724L69.265 35.4924L72.065 35.8124V37.6924H61.185V35.8124L63.785 35.4924L58.105 24.5724L54.985 28.2924C54.985 29.4124 54.985 30.5724 54.985 31.7724C55.0117 32.9724 55.0383 34.199 55.065 35.4524L58.265 35.8124V37.6924H46.585V35.8124L49.945 35.4524C49.9983 33.799 50.025 32.119 50.025 30.4124C50.025 28.7057 50.025 26.999 50.025 25.2924V23.5724C50.025 21.8924 50.025 20.2124 50.025 18.5324C50.025 16.8257 49.9983 15.119 49.945 13.4124L46.585 13.0524Z" fill="white"/>
<path d="M17.788 47.6924H16.33C16.314 47.6684 16.306 47.6364 16.306 47.5964C16.306 47.5524 16.32 47.5124 16.348 47.4764L16.75 47.4284V44.0984H16.402C16.338 44.0984 16.306 44.0704 16.306 44.0144C16.306 43.9864 16.316 43.9384 16.336 43.8704L16.348 43.8224H17.842C18.094 43.8224 18.306 43.8584 18.478 43.9304C18.654 44.0024 18.794 44.0964 18.898 44.2124C19.006 44.3284 19.084 44.4564 19.132 44.5964C19.184 44.7324 19.21 44.8664 19.21 44.9984C19.21 45.1304 19.184 45.2664 19.132 45.4064C19.084 45.5424 19.006 45.6684 18.898 45.7844C18.794 45.9004 18.654 45.9944 18.478 46.0664C18.306 46.1384 18.094 46.1744 17.842 46.1744H17.086V47.4164H17.734C17.798 47.4164 17.83 47.4444 17.83 47.5004C17.83 47.5284 17.82 47.5764 17.8 47.6444L17.788 47.6924ZM17.086 45.8984H17.842C18.154 45.8984 18.4 45.8184 18.58 45.6584C18.764 45.4944 18.856 45.2744 18.856 44.9984C18.856 44.7224 18.764 44.5044 18.58 44.3444C18.4 44.1804 18.154 44.0984 17.842 44.0984H17.086V45.8984ZM21.9604 47.4704C22.2484 47.4704 22.4984 47.4004 22.7104 47.2604C22.9264 47.1164 23.0924 46.9164 23.2084 46.6604C23.3284 46.4004 23.3884 46.0984 23.3884 45.7544C23.3884 45.4104 23.3284 45.1104 23.2084 44.8544C23.0924 44.5984 22.9264 44.4004 22.7104 44.2604C22.4984 44.1164 22.2484 44.0444 21.9604 44.0444C21.6724 44.0444 21.4204 44.1164 21.2044 44.2604C20.9924 44.4004 20.8264 44.5984 20.7064 44.8544C20.5904 45.1104 20.5324 45.4104 20.5324 45.7544C20.5324 46.1024 20.5904 46.4044 20.7064 46.6604C20.8264 46.9164 20.9924 47.1164 21.2044 47.2604C21.4204 47.4004 21.6724 47.4704 21.9604 47.4704ZM21.9604 47.7524C21.6044 47.7524 21.2924 47.6704 21.0244 47.5064C20.7564 47.3384 20.5484 47.1064 20.4004 46.8104C20.2524 46.5104 20.1784 46.1584 20.1784 45.7544C20.1784 45.3544 20.2524 45.0064 20.4004 44.7104C20.5484 44.4104 20.7564 44.1784 21.0244 44.0144C21.2924 43.8464 21.6044 43.7624 21.9604 43.7624C22.3164 43.7624 22.6284 43.8464 22.8964 44.0144C23.1644 44.1784 23.3724 44.4104 23.5204 44.7104C23.6684 45.0064 23.7424 45.3544 23.7424 45.7544C23.7424 46.1584 23.6684 46.5104 23.5204 46.8104C23.3724 47.1064 23.1644 47.3384 22.8964 47.5064C22.6284 47.6704 22.3164 47.7524 21.9604 47.7524ZM28.2113 47.7044L27.2153 44.4404L26.2013 47.7044C26.1613 47.7124 26.1173 47.7164 26.0693 47.7164C26.0213 47.7164 25.9773 47.7124 25.9373 47.7044L24.8873 44.0984H24.5393C24.4753 44.0984 24.4433 44.0704 24.4433 44.0144C24.4433 43.9864 24.4533 43.9384 24.4733 43.8704L24.4853 43.8224H25.6613C25.6773 43.8464 25.6853 43.8784 25.6853 43.9184C25.6853 43.9624 25.6713 44.0024 25.6433 44.0384L25.2413 44.0864L26.0813 47.0804L27.1013 43.8104C27.1413 43.8024 27.1853 43.7984 27.2333 43.7984C27.2813 43.7984 27.3253 43.8024 27.3653 43.8104L28.3553 47.0924L29.2013 44.0984H28.8533C28.7893 44.0984 28.7573 44.0704 28.7573 44.0144C28.7573 43.9864 28.7673 43.9384 28.7873 43.8704L28.7993 43.8224H29.9453C29.9613 43.8464 29.9693 43.8784 29.9693 43.9184C29.9693 43.9624 29.9553 44.0024 29.9273 44.0384L29.5253 44.0864L28.4753 47.7044C28.4353 47.7124 28.3913 47.7164 28.3433 47.7164C28.2953 47.7164 28.2513 47.7124 28.2113 47.7044ZM33.603 47.6924H30.813C30.797 47.6684 30.789 47.6364 30.789 47.5964C30.789 47.5524 30.803 47.5124 30.831 47.4764L31.233 47.4284V44.0984H30.885C30.821 44.0984 30.789 44.0704 30.789 44.0144C30.789 43.9864 30.799 43.9384 30.819 43.8704L30.831 43.8224H33.543C33.599 43.8664 33.647 43.9184 33.687 43.9784L33.699 44.7704C33.675 44.7864 33.643 44.7944 33.603 44.7944C33.559 44.7944 33.519 44.7804 33.483 44.7524L33.333 44.0984H31.569V45.5804H32.769L32.823 45.2624C32.835 45.1904 32.869 45.1544 32.925 45.1544C32.941 45.1544 32.973 45.1644 33.021 45.1844L33.057 45.2024V46.2584C33.033 46.2744 33.001 46.2824 32.961 46.2824C32.917 46.2824 32.877 46.2684 32.841 46.2404L32.769 45.8504H31.569V47.4164H33.393L33.543 46.7624C33.579 46.7344 33.619 46.7204 33.663 46.7204C33.703 46.7204 33.735 46.7284 33.759 46.7444L33.747 47.5364C33.707 47.5964 33.659 47.6484 33.603 47.6924ZM37.1172 47.2004L36.4572 46.0544H35.6232V47.4164H35.9712C36.0352 47.4164 36.0672 47.4444 36.0672 47.5004C36.0672 47.5284 36.0572 47.5764 36.0372 47.6444L36.0252 47.6924H34.8672C34.8512 47.6684 34.8432 47.6364 34.8432 47.5964C34.8432 47.5524 34.8572 47.5124 34.8852 47.4764L35.2872 47.4284V44.0984H34.9392C34.8752 44.0984 34.8432 44.0704 34.8432 44.0144C34.8432 43.9864 34.8532 43.9384 34.8732 43.8704L34.8852 43.8224H36.4632C36.6872 43.8224 36.8772 43.8584 37.0332 43.9304C37.1892 43.9984 37.3152 44.0904 37.4112 44.2064C37.5072 44.3184 37.5772 44.4404 37.6212 44.5724C37.6652 44.7004 37.6872 44.8224 37.6872 44.9384C37.6872 45.0744 37.6572 45.2184 37.5972 45.3704C37.5412 45.5184 37.4472 45.6524 37.3152 45.7724C37.1832 45.8924 37.0112 45.9744 36.7992 46.0184L37.4592 47.1164C37.5352 47.2444 37.6032 47.3304 37.6632 47.3744C37.7232 47.4144 37.8032 47.4344 37.9032 47.4344C37.9352 47.4344 37.9692 47.4344 38.0052 47.4344C38.0452 47.4304 38.0792 47.4264 38.1072 47.4224C38.1392 47.4784 38.1572 47.5524 38.1612 47.6444C38.0252 47.6924 37.8972 47.7164 37.7772 47.7164C37.6492 47.7164 37.5332 47.6764 37.4292 47.5964C37.3252 47.5124 37.2212 47.3804 37.1172 47.2004ZM35.6232 45.7784H36.4632C36.7312 45.7784 36.9432 45.6984 37.0992 45.5384C37.2552 45.3744 37.3332 45.1744 37.3332 44.9384C37.3332 44.7024 37.2552 44.5044 37.0992 44.3444C36.9432 44.1804 36.7312 44.0984 36.4632 44.0984H35.6232V45.7784ZM41.8579 47.6924H39.0679C39.0519 47.6684 39.0439 47.6364 39.0439 47.5964C39.0439 47.5524 39.0579 47.5124 39.0859 47.4764L39.4879 47.4284V44.0984H39.1399C39.0759 44.0984 39.0439 44.0704 39.0439 44.0144C39.0439 43.9864 39.0539 43.9384 39.0739 43.8704L39.0859 43.8224H41.7979C41.8539 43.8664 41.9019 43.9184 41.9419 43.9784L41.9539 44.7704C41.9299 44.7864 41.8979 44.7944 41.8579 44.7944C41.8139 44.7944 41.7739 44.7804 41.7379 44.7524L41.5879 44.0984H39.8239V45.5804H41.0239L41.0779 45.2624C41.0899 45.1904 41.1239 45.1544 41.1799 45.1544C41.1959 45.1544 41.2279 45.1644 41.2759 45.1844L41.3119 45.2024V46.2584C41.2879 46.2744 41.2559 46.2824 41.2159 46.2824C41.1719 46.2824 41.1319 46.2684 41.0959 46.2404L41.0239 45.8504H39.8239V47.4164H41.6479L41.7979 46.7624C41.8339 46.7344 41.8739 46.7204 41.9179 46.7204C41.9579 46.7204 41.9899 46.7284 42.0139 46.7444L42.0019 47.5364C41.9619 47.5964 41.9139 47.6484 41.8579 47.6924ZM43.8781 47.4164H44.7541C45.0541 47.4164 45.3101 47.3484 45.5221 47.2124C45.7341 47.0724 45.8961 46.8784 46.0081 46.6304C46.1241 46.3784 46.1821 46.0864 46.1821 45.7544C46.1821 45.4224 46.1241 45.1324 46.0081 44.8844C45.8961 44.6364 45.7341 44.4444 45.5221 44.3084C45.3101 44.1684 45.0541 44.0984 44.7541 44.0984H43.8781V47.4164ZM44.7541 47.6924H43.1221C43.1061 47.6684 43.0981 47.6364 43.0981 47.5964C43.0981 47.5524 43.1121 47.5124 43.1401 47.4764L43.5421 47.4284V44.0984H43.1941C43.1301 44.0984 43.0981 44.0704 43.0981 44.0144C43.0981 43.9864 43.1081 43.9384 43.1281 43.8704L43.1401 43.8224H44.7541C45.1141 43.8224 45.4261 43.9004 45.6901 44.0564C45.9581 44.2124 46.1661 44.4364 46.3141 44.7284C46.4621 45.0164 46.5361 45.3584 46.5361 45.7544C46.5361 46.1544 46.4621 46.5004 46.3141 46.7924C46.1661 47.0804 45.9581 47.3024 45.6901 47.4584C45.4261 47.6144 45.1141 47.6924 44.7541 47.6924ZM51.4731 47.6924H49.6251C49.6091 47.6684 49.6011 47.6364 49.6011 47.5964C49.6011 47.5524 49.6151 47.5124 49.6431 47.4764L50.0451 47.4284V44.0984H49.6971C49.6331 44.0984 49.6011 44.0704 49.6011 44.0144C49.6011 43.9864 49.6111 43.9384 49.6311 43.8704L49.6431 43.8224H51.3051C51.5211 43.8224 51.7111 43.8644 51.8751 43.9484C52.0431 44.0284 52.1731 44.1424 52.2651 44.2904C52.3611 44.4384 52.4091 44.6084 52.4091 44.8004C52.4091 44.9844 52.3551 45.1524 52.2471 45.3044C52.1391 45.4564 51.9931 45.5724 51.8091 45.6524C52.0771 45.7124 52.2851 45.8304 52.4331 46.0064C52.5811 46.1784 52.6551 46.3944 52.6551 46.6544C52.6551 46.8584 52.6051 47.0384 52.5051 47.1944C52.4051 47.3504 52.2671 47.4724 52.0911 47.5604C51.9151 47.6484 51.7091 47.6924 51.4731 47.6924ZM50.3811 47.4164H51.4731C51.7291 47.4164 51.9311 47.3484 52.0791 47.2124C52.2271 47.0764 52.3011 46.8924 52.3011 46.6604C52.3011 46.4124 52.2211 46.2104 52.0611 46.0544C51.9011 45.8984 51.6971 45.8204 51.4491 45.8204H50.3811V47.4164ZM50.3811 45.5504H51.3051C51.5251 45.5504 51.7051 45.4804 51.8451 45.3404C51.9851 45.2004 52.0551 45.0244 52.0551 44.8124C52.0551 44.6004 51.9851 44.4284 51.8451 44.2964C51.7051 44.1644 51.5251 44.0984 51.3051 44.0984H50.3811V45.5504ZM55.6938 47.6924H54.1758C54.1598 47.6684 54.1518 47.6364 54.1518 47.5964C54.1518 47.5524 54.1658 47.5124 54.1938 47.4764L54.7758 47.4284V46.3124L53.5638 44.0984H53.2158C53.1518 44.0984 53.1198 44.0704 53.1198 44.0144C53.1198 43.9864 53.1298 43.9384 53.1498 43.8704L53.1618 43.8224H54.3498C54.3658 43.8464 54.3738 43.8784 54.3738 43.9184C54.3738 43.9624 54.3598 44.0024 54.3318 44.0384L53.9298 44.0864L54.9678 46.0244L55.9938 44.0984H55.6458C55.5818 44.0984 55.5498 44.0704 55.5498 44.0144C55.5498 43.9864 55.5598 43.9384 55.5798 43.8704L55.5918 43.8224H56.7498C56.7658 43.8464 56.7738 43.8784 56.7738 43.9184C56.7738 43.9624 56.7598 44.0024 56.7318 44.0384L56.3298 44.0864L55.1118 46.3124V47.4164H55.6398C55.7038 47.4164 55.7358 47.4444 55.7358 47.5004C55.7358 47.5284 55.7258 47.5764 55.7058 47.6444L55.6938 47.6924ZM59.9343 46.5884V44.0984H59.5263C59.4623 44.0984 59.4303 44.0704 59.4303 44.0144C59.4303 43.9864 59.4403 43.9384 59.4603 43.8704L59.4723 43.8224H60.7503C60.7663 43.8464 60.7743 43.8784 60.7743 43.9184C60.7743 43.9624 60.7603 44.0024 60.7323 44.0384L60.2703 44.0864V46.4864C60.2703 46.8184 60.2343 47.1064 60.1623 47.3504C60.0943 47.5904 59.9783 47.8044 59.8143 47.9924C59.6503 48.1844 59.4323 48.3684 59.1603 48.5444C59.0883 48.4844 59.0383 48.4144 59.0103 48.3344C59.2463 48.1544 59.4303 47.9804 59.5623 47.8124C59.6983 47.6484 59.7943 47.4684 59.8503 47.2724C59.9063 47.0764 59.9343 46.8484 59.9343 46.5884ZM65.0889 47.6924H63.9189C63.9029 47.6684 63.8949 47.6364 63.8949 47.5964C63.8949 47.5524 63.9089 47.5124 63.9369 47.4764L64.3389 47.4284L63.9549 46.4324H62.3229L61.9509 47.4164H62.2989C62.3629 47.4164 62.3949 47.4444 62.3949 47.5004C62.3949 47.5284 62.3849 47.5764 62.3649 47.6444L62.3529 47.6924H61.2009C61.1849 47.6684 61.1769 47.6364 61.1769 47.5964C61.1769 47.5524 61.1909 47.5124 61.2189 47.4764L61.6209 47.4284L63.0249 43.8104C63.0649 43.8024 63.1089 43.7984 63.1569 43.7984C63.2049 43.7984 63.2489 43.8024 63.2889 43.8104L64.6869 47.4164H65.0349C65.0989 47.4164 65.1309 47.4444 65.1309 47.5004C65.1309 47.5284 65.1209 47.5764 65.1009 47.6444L65.0889 47.6924ZM63.8529 46.1624L63.1389 44.2784L62.4249 46.1624H63.8529ZM70.4881 47.6924H69.3301C69.3141 47.6684 69.3061 47.6364 69.3061 47.5964C69.3061 47.5524 69.3201 47.5124 69.3481 47.4764L69.7501 47.4284V44.3504L68.3641 47.2124C68.3241 47.2204 68.2801 47.2244 68.2321 47.2244C68.1841 47.2244 68.1401 47.2204 68.1001 47.2124L66.7141 44.4224V47.4164H67.0621C67.1261 47.4164 67.1581 47.4444 67.1581 47.5004C67.1581 47.5284 67.1481 47.5764 67.1281 47.6444L67.1161 47.6924H65.9821C65.9661 47.6684 65.9581 47.6364 65.9581 47.5964C65.9581 47.5524 65.9721 47.5124 66.0001 47.4764L66.4021 47.4284V44.0984H66.0541C65.9901 44.0984 65.9581 44.0704 65.9581 44.0144C65.9581 43.9864 65.9681 43.9384 65.9881 43.8704L66.0001 43.8224H66.7741L68.2501 46.7864L69.6901 43.8224H70.5061C70.5221 43.8464 70.5301 43.8784 70.5301 43.9184C70.5301 43.9624 70.5161 44.0024 70.4881 44.0384L70.0861 44.0864V47.4164H70.4341C70.4981 47.4164 70.5301 47.4444 70.5301 47.5004C70.5301 47.5284 70.5201 47.5764 70.5001 47.6444L70.4881 47.6924ZM74.4377 47.6924H71.6477C71.6317 47.6684 71.6237 47.6364 71.6237 47.5964C71.6237 47.5524 71.6377 47.5124 71.6657 47.4764L72.0677 47.4284V44.0984H71.7197C71.6557 44.0984 71.6237 44.0704 71.6237 44.0144C71.6237 43.9864 71.6337 43.9384 71.6537 43.8704L71.6657 43.8224H74.3777C74.4337 43.8664 74.4817 43.9184 74.5217 43.9784L74.5337 44.7704C74.5097 44.7864 74.4777 44.7944 74.4377 44.7944C74.3937 44.7944 74.3537 44.7804 74.3177 44.7524L74.1677 44.0984H72.4037V45.5804H73.6037L73.6577 45.2624C73.6697 45.1904 73.7037 45.1544 73.7597 45.1544C73.7757 45.1544 73.8077 45.1644 73.8557 45.1844L73.8917 45.2024V46.2584C73.8677 46.2744 73.8357 46.2824 73.7957 46.2824C73.7517 46.2824 73.7117 46.2684 73.6757 46.2404L73.6037 45.8504H72.4037V47.4164H74.2277L74.3777 46.7624C74.4137 46.7344 74.4537 46.7204 74.4977 46.7204C74.5377 46.7204 74.5697 46.7284 74.5937 46.7444L74.5817 47.5364C74.5417 47.5964 74.4937 47.6484 74.4377 47.6924ZM78.4919 47.6924H75.7019C75.6859 47.6684 75.6779 47.6364 75.6779 47.5964C75.6779 47.5524 75.6919 47.5124 75.7199 47.4764L76.1219 47.4284V44.0984H75.7739C75.7099 44.0984 75.6779 44.0704 75.6779 44.0144C75.6779 43.9864 75.6879 43.9384 75.7079 43.8704L75.7199 43.8224H78.4319C78.4879 43.8664 78.5359 43.9184 78.5759 43.9784L78.5879 44.7704C78.5639 44.7864 78.5319 44.7944 78.4919 44.7944C78.4479 44.7944 78.4079 44.7804 78.3719 44.7524L78.2219 44.0984H76.4579V45.5804H77.6579L77.7119 45.2624C77.7239 45.1904 77.7579 45.1544 77.8139 45.1544C77.8299 45.1544 77.8619 45.1644 77.9099 45.1844L77.9459 45.2024V46.2584C77.9219 46.2744 77.8899 46.2824 77.8499 46.2824C77.8059 46.2824 77.7659 46.2684 77.7299 46.2404L77.6579 45.8504H76.4579V47.4164H78.2819L78.4319 46.7624C78.4679 46.7344 78.5079 46.7204 78.5519 46.7204C78.5919 46.7204 78.6239 46.7284 78.6479 46.7444L78.6359 47.5364C78.5959 47.5964 78.5479 47.6484 78.4919 47.6924ZM82.3961 47.6924H79.7561C79.7401 47.6684 79.7321 47.6364 79.7321 47.5964C79.7321 47.5524 79.7461 47.5124 79.7741 47.4764L80.1761 47.4284V44.0984H79.8281C79.7641 44.0984 79.7321 44.0704 79.7321 44.0144C79.7321 43.9864 79.7421 43.9384 79.7621 43.8704L79.7741 43.8224H80.9921C81.0081 43.8464 81.0161 43.8784 81.0161 43.9184C81.0161 43.9624 81.0021 44.0024 80.9741 44.0384L80.5121 44.0864V47.4164H82.1861L82.3361 46.7324C82.3721 46.7044 82.4121 46.6904 82.4561 46.6904C82.4961 46.6904 82.5281 46.6984 82.5521 46.7144L82.5401 47.5364C82.5001 47.5964 82.4521 47.6484 82.3961 47.6924ZM88.2928 47.3204V46.0784H87.6448C87.5808 46.0784 87.5488 46.0504 87.5488 45.9944C87.5488 45.9664 87.5588 45.9184 87.5788 45.8504L87.5908 45.8024H89.0188C89.0348 45.8264 89.0428 45.8584 89.0428 45.8984C89.0428 45.9424 89.0288 45.9824 89.0008 46.0184L88.6288 46.0664V47.3444C88.6168 47.3724 88.6008 47.4024 88.5808 47.4344C88.5608 47.4664 88.5388 47.4964 88.5148 47.5244C88.3668 47.5924 88.1868 47.6484 87.9748 47.6924C87.7668 47.7324 87.5628 47.7524 87.3628 47.7524C86.9788 47.7524 86.6468 47.6724 86.3668 47.5124C86.0868 47.3484 85.8708 47.1184 85.7188 46.8224C85.5668 46.5224 85.4908 46.1684 85.4908 45.7604C85.4908 45.3564 85.5668 45.0044 85.7188 44.7044C85.8748 44.4044 86.0908 44.1724 86.3668 44.0084C86.6468 43.8444 86.9768 43.7624 87.3568 43.7624C87.5208 43.7624 87.6968 43.7824 87.8848 43.8224C88.0728 43.8624 88.2468 43.9184 88.4068 43.9904C88.4308 44.0184 88.4528 44.0484 88.4728 44.0804C88.4928 44.1124 88.5088 44.1424 88.5208 44.1704L88.5328 44.9084C88.5088 44.9244 88.4768 44.9324 88.4368 44.9324C88.3928 44.9324 88.3528 44.9184 88.3168 44.8904L88.1548 44.2004C88.0148 44.1444 87.8808 44.1044 87.7528 44.0804C87.6288 44.0564 87.4968 44.0444 87.3568 44.0444C87.0488 44.0444 86.7808 44.1144 86.5528 44.2544C86.3248 44.3944 86.1488 44.5944 86.0248 44.8544C85.9048 45.1104 85.8448 45.4144 85.8448 45.7664C85.8448 46.1144 85.9068 46.4164 86.0308 46.6724C86.1588 46.9284 86.3388 47.1264 86.5708 47.2664C86.8028 47.4024 87.0768 47.4704 87.3928 47.4704C87.5368 47.4704 87.6948 47.4564 87.8668 47.4284C88.0428 47.3964 88.1848 47.3604 88.2928 47.3204ZM92.2527 47.2004L91.5927 46.0544H90.7587V47.4164H91.1067C91.1707 47.4164 91.2027 47.4444 91.2027 47.5004C91.2027 47.5284 91.1927 47.5764 91.1727 47.6444L91.1607 47.6924H90.0027C89.9867 47.6684 89.9787 47.6364 89.9787 47.5964C89.9787 47.5524 89.9927 47.5124 90.0207 47.4764L90.4227 47.4284V44.0984H90.0747C90.0107 44.0984 89.9787 44.0704 89.9787 44.0144C89.9787 43.9864 89.9887 43.9384 90.0087 43.8704L90.0207 43.8224H91.5987C91.8227 43.8224 92.0127 43.8584 92.1687 43.9304C92.3247 43.9984 92.4507 44.0904 92.5467 44.2064C92.6427 44.3184 92.7127 44.4404 92.7567 44.5724C92.8007 44.7004 92.8227 44.8224 92.8227 44.9384C92.8227 45.0744 92.7927 45.2184 92.7327 45.3704C92.6767 45.5184 92.5827 45.6524 92.4507 45.7724C92.3187 45.8924 92.1467 45.9744 91.9347 46.0184L92.5947 47.1164C92.6707 47.2444 92.7387 47.3304 92.7987 47.3744C92.8587 47.4144 92.9387 47.4344 93.0387 47.4344C93.0707 47.4344 93.1047 47.4344 93.1407 47.4344C93.1807 47.4304 93.2147 47.4264 93.2427 47.4224C93.2747 47.4784 93.2927 47.5524 93.2967 47.6444C93.1607 47.6924 93.0327 47.7164 92.9127 47.7164C92.7847 47.7164 92.6687 47.6764 92.5647 47.5964C92.4607 47.5124 92.3567 47.3804 92.2527 47.2004ZM90.7587 45.7784H91.5987C91.8667 45.7784 92.0787 45.6984 92.2347 45.5384C92.3907 45.3744 92.4687 45.1744 92.4687 44.9384C92.4687 44.7024 92.3907 44.5044 92.2347 44.3444C92.0787 44.1804 91.8667 44.0984 91.5987 44.0984H90.7587V45.7784ZM95.8382 47.4704C96.1262 47.4704 96.3762 47.4004 96.5882 47.2604C96.8042 47.1164 96.9702 46.9164 97.0862 46.6604C97.2062 46.4004 97.2662 46.0984 97.2662 45.7544C97.2662 45.4104 97.2062 45.1104 97.0862 44.8544C96.9702 44.5984 96.8042 44.4004 96.5882 44.2604C96.3762 44.1164 96.1262 44.0444 95.8382 44.0444C95.5502 44.0444 95.2982 44.1164 95.0822 44.2604C94.8702 44.4004 94.7042 44.5984 94.5842 44.8544C94.4682 45.1104 94.4102 45.4104 94.4102 45.7544C94.4102 46.1024 94.4682 46.4044 94.5842 46.6604C94.7042 46.9164 94.8702 47.1164 95.0822 47.2604C95.2982 47.4004 95.5502 47.4704 95.8382 47.4704ZM95.8382 47.7524C95.4822 47.7524 95.1702 47.6704 94.9022 47.5064C94.6342 47.3384 94.4262 47.1064 94.2782 46.8104C94.1302 46.5104 94.0562 46.1584 94.0562 45.7544C94.0562 45.3544 94.1302 45.0064 94.2782 44.7104C94.4262 44.4104 94.6342 44.1784 94.9022 44.0144C95.1702 43.8464 95.4822 43.7624 95.8382 43.7624C96.1942 43.7624 96.5062 43.8464 96.7742 44.0144C97.0422 44.1784 97.2502 44.4104 97.3982 44.7104C97.5462 45.0064 97.6202 45.3544 97.6202 45.7544C97.6202 46.1584 97.5462 46.5104 97.3982 46.8104C97.2502 47.1064 97.0422 47.3384 96.7742 47.5064C96.5062 47.6704 96.1942 47.7524 95.8382 47.7524ZM101.524 46.3664V44.0984H101.176C101.112 44.0984 101.08 44.0704 101.08 44.0144C101.08 43.9864 101.09 43.9384 101.11 43.8704L101.122 43.8224H102.262C102.278 43.8464 102.286 43.8784 102.286 43.9184C102.286 43.9624 102.272 44.0024 102.244 44.0384L101.842 44.0864V46.3664C101.842 46.6704 101.78 46.9264 101.656 47.1344C101.532 47.3384 101.362 47.4924 101.146 47.5964C100.934 47.7004 100.698 47.7524 100.438 47.7524C100.178 47.7524 99.9397 47.7004 99.7237 47.5964C99.5117 47.4924 99.3437 47.3384 99.2197 47.1344C99.0957 46.9264 99.0337 46.6704 99.0337 46.3664V44.0984H98.6857C98.6217 44.0984 98.5897 44.0704 98.5897 44.0144C98.5897 43.9864 98.5997 43.9384 98.6197 43.8704L98.6317 43.8224H99.7897C99.8057 43.8464 99.8137 43.8784 99.8137 43.9184C99.8137 43.9624 99.7997 44.0024 99.7717 44.0384L99.3697 44.0864V46.3664C99.3697 46.6824 99.4597 46.9464 99.6397 47.1584C99.8237 47.3664 100.09 47.4704 100.438 47.4704C100.802 47.4704 101.074 47.3664 101.254 47.1584C101.434 46.9464 101.524 46.6824 101.524 46.3664ZM104.801 47.6924H103.343C103.327 47.6684 103.319 47.6364 103.319 47.5964C103.319 47.5524 103.333 47.5124 103.361 47.4764L103.763 47.4284V44.0984H103.415C103.351 44.0984 103.319 44.0704 103.319 44.0144C103.319 43.9864 103.329 43.9384 103.349 43.8704L103.361 43.8224H104.855C105.107 43.8224 105.319 43.8584 105.491 43.9304C105.667 44.0024 105.807 44.0964 105.911 44.2124C106.019 44.3284 106.097 44.4564 106.145 44.5964C106.197 44.7324 106.223 44.8664 106.223 44.9984C106.223 45.1304 106.197 45.2664 106.145 45.4064C106.097 45.5424 106.019 45.6684 105.911 45.7844C105.807 45.9004 105.667 45.9944 105.491 46.0664C105.319 46.1384 105.107 46.1744 104.855 46.1744H104.099V47.4164H104.747C104.811 47.4164 104.843 47.4444 104.843 47.5004C104.843 47.5284 104.833 47.5764 104.813 47.6444L104.801 47.6924ZM104.099 45.8984H104.855C105.167 45.8984 105.413 45.8184 105.593 45.6584C105.777 45.4944 105.869 45.2744 105.869 44.9984C105.869 44.7224 105.777 44.5044 105.593 44.3444C105.413 44.1804 105.167 44.0984 104.855 44.0984H104.099V45.8984ZM112.82 47.6924H111.65C111.634 47.6684 111.626 47.6364 111.626 47.5964C111.626 47.5524 111.64 47.5124 111.668 47.4764L112.07 47.4284L111.686 46.4324H110.054L109.682 47.4164H110.03C110.094 47.4164 110.126 47.4444 110.126 47.5004C110.126 47.5284 110.116 47.5764 110.096 47.6444L110.084 47.6924H108.932C108.916 47.6684 108.908 47.6364 108.908 47.5964C108.908 47.5524 108.922 47.5124 108.95 47.4764L109.352 47.4284L110.756 43.8104C110.796 43.8024 110.84 43.7984 110.888 43.7984C110.936 43.7984 110.98 43.8024 111.02 43.8104L112.418 47.4164H112.766C112.83 47.4164 112.862 47.4444 112.862 47.5004C112.862 47.5284 112.852 47.5764 112.832 47.6444L112.82 47.6924ZM111.584 46.1624L110.87 44.2784L110.156 46.1624H111.584ZM114.931 47.6924H113.653C113.637 47.6684 113.629 47.6364 113.629 47.5964C113.629 47.5524 113.643 47.5124 113.671 47.4764L114.133 47.4284V44.0984H113.725C113.661 44.0984 113.629 44.0704 113.629 44.0144C113.629 43.9864 113.639 43.9384 113.659 43.8704L113.671 43.8224H114.949C114.965 43.8464 114.973 43.8784 114.973 43.9184C114.973 43.9624 114.959 44.0024 114.931 44.0384L114.469 44.0864V47.4164H114.877C114.941 47.4164 114.973 47.4444 114.973 47.5004C114.973 47.5284 114.963 47.5764 114.943 47.6444L114.931 47.6924Z" fill="white"/>
</svg>
