<svg width="22" height="23" viewBox="0 0 22 23" fill="none" xmlns="http://www.w3.org/2000/svg">
<path d="M6.1888 2.79167C8.34041 2.79167 10.0846 4.5359 10.0846 6.68751V10.5833H6.1888C4.03719 10.5833 2.29297 8.83911 2.29297 6.68751C2.29297 4.5359 4.03719 2.79167 6.1888 2.79167ZM8.2513 8.75001V6.68751C8.2513 5.54842 7.32789 4.62501 6.1888 4.62501C5.04972 4.62501 4.1263 5.54842 4.1263 6.68751C4.1263 7.82659 5.04972 8.75001 6.1888 8.75001H8.2513ZM6.1888 12.4167H10.0846V16.3125C10.0846 18.4641 8.34041 20.2083 6.1888 20.2083C4.03719 20.2083 2.29297 18.4641 2.29297 16.3125C2.29297 14.1609 4.03719 12.4167 6.1888 12.4167ZM6.1888 14.25C5.04972 14.25 4.1263 15.1735 4.1263 16.3125C4.1263 17.4516 5.04972 18.375 6.1888 18.375C7.32789 18.375 8.2513 17.4516 8.2513 16.3125V14.25H6.1888ZM15.8138 2.79167C17.9654 2.79167 19.7096 4.5359 19.7096 6.68751C19.7096 8.83911 17.9654 10.5833 15.8138 10.5833H11.918V6.68751C11.918 4.5359 13.6622 2.79167 15.8138 2.79167ZM15.8138 8.75001C16.9529 8.75001 17.8763 7.82659 17.8763 6.68751C17.8763 5.54842 16.9529 4.62501 15.8138 4.62501C14.6748 4.62501 13.7513 5.54842 13.7513 6.68751V8.75001H15.8138ZM11.918 12.4167H15.8138C17.9654 12.4167 19.7096 14.1609 19.7096 16.3125C19.7096 18.4641 17.9654 20.2083 15.8138 20.2083C13.6622 20.2083 11.918 18.4641 11.918 16.3125V12.4167ZM13.7513 14.25V16.3125C13.7513 17.4516 14.6748 18.375 15.8138 18.375C16.9529 18.375 17.8763 17.4516 17.8763 16.3125C17.8763 15.1735 16.9529 14.25 15.8138 14.25H13.7513Z" fill="white"/>
</svg>
